<?xml version="1.0" encoding="utf-8"?>
<!-- Generator: Adobe Illustrator 23.0.5, SVG Export Plug-In . SVG Version: 6.00 Build 0)  -->
<svg version="1.1" xmlns="http://www.w3.org/2000/svg" xmlns:xlink="http://www.w3.org/1999/xlink" x="0px" y="0px"
	 viewBox="0 0 151.5 63.9" style="enable-background:new 0 0 151.5 63.9;" xml:space="preserve">
<style type="text/css">
	.st0{display:none;}
	.st1{display:inline;}
	.st2{fill-rule:evenodd;clip-rule:evenodd;fill:#051A24;}
	.st3{fill:#051A24;}
	.st4{fill:none;stroke:#002B39;stroke-width:0.2958;stroke-miterlimit:10;}
	.st5{fill:none;stroke:#002B39;stroke-width:0.5916;stroke-miterlimit:10;}
	.st6{fill:none;stroke:#002B39;stroke-width:0.2958;stroke-linecap:round;stroke-linejoin:round;stroke-miterlimit:10;}
	.st7{fill:none;stroke:#002B39;stroke-width:0.2958;stroke-linecap:square;stroke-miterlimit:10;}
	.st8{fill:#002B39;}
	.st9{fill:none;stroke:#002B39;stroke-width:0.1261;stroke-miterlimit:10;}
	.st10{fill:none;stroke:#002B39;stroke-width:1.2383;stroke-miterlimit:10;}
	.st11{fill:none;stroke:#002B39;stroke-width:1.2367;stroke-miterlimit:10;}
</style>
<g id="Layer_1" class="st0">
	<g id="Group_868" transform="translate(-241.121 -357)" class="st1">
		<g transform="translate(263.774 357)">
			<g id="Group_861">
				<path id="Path_7114" class="st2" d="M90.2,23c-0.3-1.9-1.9-3.3-3.8-3.4v5.4c2.1,0,4,1.2,4.9,3.1c0.9-0.3,1.9-0.3,2.9-0.1
					c0.6-2.1-0.6-4.3-2.7-4.9C91.3,23,90.9,23,90.5,23C90.4,23,90.3,23,90.2,23L90.2,23z M97,33.4c0-2.2-1.8-4-4-4
					c-1,0-1.9,0.4-2.6,1c-0.1-2.1-1.8-3.8-4-3.8v14h14.4c1.7-1.3,2-3.8,0.7-5.6c-1.1-1.4-2.9-1.9-4.5-1.2C97,33.7,97,33.5,97,33.4
					L97,33.4z M72.1,10.6v30H57.9V31c0-3.7-2.9-6.7-6.6-6.8s-6.7,2.9-6.8,6.6c0,0.1,0,0.1,0,0.2v9.6H30.4v-30L72.1,10.6z M12.2,23
					c0.3-1.9,1.9-3.3,3.8-3.4v5.4c-2.1,0-4,1.2-4.9,3.1C10,27.9,9,27.8,8.1,28c-0.6-2.1,0.6-4.3,2.7-4.9c0.4-0.1,0.7-0.2,1.1-0.2
					C12,23,12.1,23,12.2,23L12.2,23z M5.4,33.4c0-2.2,1.8-4,4-4c1,0,1.9,0.4,2.6,1c0.1-2.1,1.8-3.8,4-3.8v14H1.5
					c-1.7-1.3-2-3.8-0.7-5.6c1.1-1.4,2.9-1.9,4.5-1.2C5.4,33.7,5.4,33.5,5.4,33.4L5.4,33.4z M73.6,0h2.3v2.3h2.3V0h2.3v2.3h2.3V0H85
					v40.6H73.6V0z M17.4,0h2.3v2.3H22V0h2.3v2.3h2.3V0h2.3v40.6H17.4L17.4,0L17.4,0z M35.4,22.7h4.2v5.4h-4.2L35.4,22.7L35.4,22.7z
					 M35.4,30.3h4.2v5.4h-4.2L35.4,30.3L35.4,30.3z M62.9,30.3h4.2v5.4h-4.2V30.3L62.9,30.3z M62.9,22.7h4.2v5.4h-4.2V22.7z
					 M52.4,13.6h4.2V19h-4.2L52.4,13.6L52.4,13.6z M30.4,6.5H72v2.6H30.4L30.4,6.5L30.4,6.5z"/>
			</g>
		</g>
		<g id="Layer_3" transform="translate(241.121 410.905)">
			<g id="Group_862">
				<path id="Path_7117" class="st3" d="M8.7,0.1v9.7H6.8V5.7h-5v4.2H0V0.1h1.8v4h5v-4H8.7z"/>
				<path id="Path_7118" class="st3" d="M14.5,9.4c-0.8-0.4-1.4-1-1.9-1.8c-0.9-1.6-0.9-3.5,0-5.1c0.4-0.8,1.1-1.4,1.9-1.8
					c1.7-0.9,3.7-0.9,5.4,0c0.8,0.4,1.4,1,1.9,1.8c0.9,1.6,0.9,3.6,0,5.1c-0.4,0.8-1.1,1.4-1.9,1.8C18.2,10.2,16.2,10.2,14.5,9.4
					L14.5,9.4z M19,8c0.5-0.3,0.9-0.7,1.2-1.2c0.6-1.1,0.6-2.4,0-3.5C19.9,2.7,19.5,2.3,19,2c-1.1-0.6-2.4-0.6-3.5,0
					c-0.5,0.3-0.9,0.7-1.2,1.2c-0.6,1.1-0.6,2.4,0,3.5c0.3,0.5,0.7,0.9,1.2,1.2C16.6,8.6,17.9,8.6,19,8z"/>
				<path id="Path_7119" class="st3" d="M25.8,0.1H30c1,0,1.9,0.2,2.8,0.6c0.8,0.4,1.4,1,1.9,1.7c0.9,1.6,0.9,3.5,0,5.1
					c-0.4,0.7-1.1,1.3-1.9,1.7C31.9,9.7,31,9.9,30,9.9h-4.3L25.8,0.1z M29.9,8.3c0.7,0,1.3-0.1,1.9-0.4c0.5-0.3,1-0.7,1.3-1.2
					c0.6-1.1,0.6-2.4,0-3.5c-0.3-0.5-0.7-0.9-1.3-1.2c-0.6-0.3-1.2-0.4-1.9-0.4h-2.4v6.7H29.9z"/>
				<path id="Path_7120" class="st3" d="M39.5,9.7c-0.6-0.2-1.2-0.5-1.7-0.8l0.6-1.4c0.4,0.3,0.9,0.6,1.5,0.8
					c0.6,0.2,1.2,0.3,1.7,0.3c0.6,0,1.1-0.1,1.6-0.3c0.3-0.2,0.5-0.5,0.5-0.9c0-0.3-0.1-0.5-0.3-0.7c-0.2-0.2-0.5-0.3-0.8-0.4
					C42.5,6,42,5.9,41.5,5.8c-0.6-0.1-1.2-0.3-1.8-0.5c-0.5-0.2-0.9-0.5-1.2-0.8C38.2,4,38,3.5,38,2.9c0-0.5,0.1-1,0.4-1.5
					c0.3-0.5,0.8-0.8,1.3-1C40.5,0.1,41.2,0,42,0c0.6,0,1.2,0.1,1.8,0.2c0.5,0.1,1,0.3,1.5,0.6l-0.6,1.4c-0.4-0.2-0.9-0.4-1.3-0.6
					c-0.4-0.1-0.9-0.2-1.4-0.2c-0.6,0-1.1,0.1-1.6,0.4c-0.3,0.2-0.5,0.6-0.5,1c0,0.3,0.1,0.5,0.3,0.7c0.2,0.2,0.5,0.3,0.8,0.4
					c0.3,0.1,0.7,0.2,1.3,0.3c0.6,0.1,1.2,0.3,1.8,0.5c0.5,0.2,0.9,0.5,1.2,0.8c0.3,0.4,0.5,1,0.5,1.5c0,0.5-0.1,1-0.4,1.5
					c-0.3,0.5-0.8,0.8-1.3,1c-0.7,0.3-1.4,0.4-2.2,0.4C40.9,10,40.2,9.9,39.5,9.7z"/>
				<path id="Path_7121" class="st3" d="M50.7,9.4c-0.8-0.4-1.4-1-1.9-1.8c-0.9-1.6-0.9-3.5,0-5.1c0.4-0.8,1.1-1.4,1.9-1.8
					c1.7-0.9,3.7-0.9,5.4,0c0.8,0.4,1.4,1,1.9,1.8c0.9,1.6,0.9,3.6,0,5.1C57.5,8.3,56.8,9,56,9.4C54.3,10.2,52.3,10.2,50.7,9.4
					L50.7,9.4z M55.1,8c0.5-0.3,0.9-0.7,1.2-1.2c0.6-1.1,0.6-2.4,0-3.5C56,2.7,55.6,2.3,55.1,2c-1.1-0.6-2.4-0.6-3.5,0
					c-0.5,0.3-0.9,0.7-1.2,1.2c-0.6,1.1-0.6,2.4,0,3.5c0.3,0.5,0.7,0.9,1.2,1.2C52.7,8.6,54,8.6,55.1,8z"/>
				<path id="Path_7122" class="st3" d="M63.7,9.4c-0.8-0.4-1.4-1-1.9-1.8C61,6,61,4,61.9,2.4c0.4-0.8,1.1-1.4,1.9-1.8
					c1.5-0.8,3.3-0.9,4.8-0.2c0.6,0.3,1.2,0.7,1.7,1.2l-1.2,1.1c-0.7-0.7-1.6-1.2-2.6-1.1c-0.6,0-1.2,0.1-1.8,0.4
					c-0.5,0.3-0.9,0.7-1.2,1.2c-0.6,1.1-0.6,2.4,0,3.5c0.3,0.5,0.7,0.9,1.2,1.2c0.6,0.3,1.2,0.4,1.8,0.4c1,0,1.9-0.4,2.6-1.2
					l1.2,1.1c-0.5,0.5-1,0.9-1.7,1.2c-0.7,0.3-1.4,0.4-2.2,0.4C65.5,10,64.6,9.8,63.7,9.4z"/>
				<path id="Path_7123" class="st3" d="M76.8,5.8l-1.5,1.6v2.5h-1.8V0.1h1.8v5l4.8-5h2L78,4.5l4.3,5.4h-2.1L76.8,5.8z"/>
				<path id="Path_7124" class="st3" d="M96.4,0.6c0.6,0.2,1.1,0.7,1.4,1.2c0.7,1.1,0.7,2.6,0,3.7c-0.3,0.5-0.8,1-1.4,1.2
					c-0.7,0.3-1.4,0.4-2.2,0.4H92v2.8h-1.8V0.1h4C94.9,0.1,95.7,0.3,96.4,0.6z M95.9,5c0.8-0.8,0.8-2,0.1-2.8c0,0,0,0-0.1-0.1
					c-0.5-0.4-1.2-0.5-1.8-0.5H92v3.9h2.1C94.7,5.6,95.4,5.4,95.9,5L95.9,5z"/>
				<path id="Path_7125" class="st3" d="M107.9,9.9l-2-2.9c-0.1,0-0.2,0-0.4,0h-2.2v2.8h-1.8V0.1h4c0.8,0,1.5,0.1,2.2,0.4
					c0.6,0.2,1.1,0.7,1.4,1.2c0.3,0.6,0.5,1.2,0.5,1.9c0,0.7-0.2,1.3-0.5,1.9c-0.4,0.5-0.9,1-1.5,1.2l2.2,3.2L107.9,9.9z M107.2,2.2
					c-0.5-0.4-1.2-0.5-1.8-0.5h-2.1v3.9h2.1c0.6,0,1.3-0.1,1.8-0.5c0.4-0.4,0.6-0.9,0.6-1.4C107.9,3.1,107.7,2.5,107.2,2.2
					L107.2,2.2z"/>
				<path id="Path_7126" class="st3" d="M113.1,0.1h1.8v9.7h-1.8V0.1z"/>
				<path id="Path_7127" class="st3" d="M120.8,9.4c-0.8-0.4-1.4-1-1.9-1.8C118,6,118,4,118.9,2.4c0.4-0.8,1.1-1.4,1.9-1.8
					c1.7-0.9,3.7-0.9,5.4,0c0.8,0.4,1.4,1,1.9,1.8c0.9,1.6,0.9,3.6,0,5.1c-0.5,0.8-1.1,1.4-1.9,1.8C124.5,10.2,122.5,10.2,120.8,9.4
					L120.8,9.4z M125.2,8c0.5-0.3,0.9-0.7,1.2-1.2c0.6-1.1,0.6-2.4,0-3.5c-0.3-0.5-0.7-0.9-1.2-1.2c-1.1-0.6-2.4-0.6-3.5,0
					c-0.5,0.3-0.9,0.7-1.2,1.2c-0.6,1.1-0.6,2.4,0,3.5c0.3,0.5,0.7,0.9,1.2,1.2C122.8,8.6,124.1,8.6,125.2,8z"/>
				<path id="Path_7128" class="st3" d="M138.4,9.9l-2-2.9c-0.1,0-0.2,0-0.4,0h-2.2v2.8H132V0.1h4c0.8,0,1.5,0.1,2.2,0.4
					c0.6,0.2,1.1,0.7,1.4,1.2c0.3,0.6,0.5,1.2,0.5,1.9c0,0.7-0.2,1.3-0.5,1.9c-0.4,0.5-0.9,1-1.5,1.2l2.2,3.2L138.4,9.9z M137.7,2.2
					c-0.5-0.4-1.2-0.5-1.8-0.5h-2.1v3.9h2.1c0.6,0,1.3-0.1,1.8-0.5c0.4-0.4,0.6-0.9,0.6-1.4C138.4,3.1,138.2,2.5,137.7,2.2
					L137.7,2.2z"/>
				<path id="Path_7129" class="st3" d="M147.6,6.4v3.4h-1.8V6.5L142,0.1h1.9l2.9,4.7l2.9-4.7h1.8L147.6,6.4z"/>
			</g>
		</g>
	</g>
</g>
<g id="Layer_2">
	<g>
		<path id="path2" class="st4" d="M36,41c0.1,0,0.2,0,0.2,0c0.4,0,0.7,0.2,0.9,0.5"/>
		<path id="path4" class="st4" d="M35.5,40.8c-0.1,0.1-0.1,0.1-0.2,0.1"/>
		<path id="path6" class="st4" d="M32.6,50.8c-0.1,0-0.1,0-0.1,0c-0.1,0-0.2,0-0.3-0.1c-0.1,0.1-0.2,0.1-0.4,0.1
			c-0.3,0-0.6-0.2-0.6-0.4l0,0h0c-0.2,0-0.4-0.1-0.4-0.2c-0.1,0-0.2,0-0.3,0c-0.3,0-0.5-0.1-0.7-0.2c-0.1,0.2-0.4,0.4-0.7,0.4
			c-0.2,0-0.4-0.1-0.5-0.1c-0.2,0.1-0.4,0.2-0.6,0.2c-0.5,0-0.9-0.3-0.9-0.7l0,0c0,0-0.1,0-0.1,0c-0.4,0-0.8-0.3-0.8-0.6
			c0,0,0-0.1,0-0.1c-0.1,0-0.1,0-0.2,0c-0.4,0-0.8-0.3-0.8-0.6c0-0.1,0-0.1,0.1-0.2c-0.4-0.1-0.6-0.4-0.6-0.7c0-0.2,0.1-0.3,0.2-0.4
			c-0.1-0.1-0.2-0.3-0.2-0.5c0-0.4,0.4-0.7,0.8-0.8c0-0.1-0.1-0.1-0.1-0.2c0-0.3,0.4-0.6,0.8-0.6c0,0,0-0.1,0-0.1
			c0-0.1,0.1-0.2,0.1-0.4c-0.1-0.1-0.1-0.2-0.1-0.3c0-0.1,0.1-0.3,0.2-0.4c-0.1-0.1-0.2-0.3-0.2-0.4c0-0.3,0.4-0.6,0.8-0.7
			c0-0.1-0.1-0.1-0.1-0.2c0-0.3,0.4-0.5,0.7-0.5c0,0,0-0.1,0-0.1c0-0.4,0.4-0.6,0.9-0.6c0.2,0,0.4,0.1,0.5,0.1
			c0.1-0.1,0.4-0.2,0.6-0.2c0.1,0,0.2,0,0.4,0.1c0.1-0.1,0.3-0.2,0.5-0.2c0-0.1,0.1-0.2,0.1-0.3c-0.1-0.1-0.1-0.2-0.1-0.3
			c0-0.2,0.2-0.4,0.5-0.5c0,0,0-0.1,0-0.1c0-0.2,0.2-0.3,0.5-0.3c0,0,0-0.1,0-0.1c0-0.2,0.3-0.4,0.6-0.4c0.1,0,0.2,0,0.3,0.1
			c0.1-0.1,0.2-0.1,0.4-0.1c0.1,0,0.1,0,0.2,0.1c0.1-0.1,0.4-0.2,0.6-0.2c0.3,0,0.6,0.2,0.7,0.4c0.1,0,0.1,0,0.2,0
			c0.2,0,0.4,0.2,0.4,0.4c0,0,0.1,0,0.1,0c0.4,0,0.7,0.3,0.7,0.5c0,0.1-0.1,0.2-0.1,0.3c0.1,0.1,0.1,0.1,0.1,0.2
			c0,0.1,0,0.1-0.1,0.1"/>
		<path id="path8" class="st4" d="M115.7,41.3c-0.1,0-0.1,0-0.2,0c-0.4,0-0.7,0.2-0.8,0.5"/>
		<path id="path10" class="st4" d="M119.2,50.9c0.1,0,0.2,0,0.3-0.1c0.1,0.1,0.2,0.1,0.4,0.1c0.3,0,0.6-0.2,0.6-0.4l0,0h0
			c0.2,0,0.4-0.1,0.4-0.2c0.1,0,0.2,0,0.3,0c0.3,0,0.5-0.1,0.7-0.2c0.1,0.2,0.4,0.3,0.7,0.3c0.2,0,0.4-0.1,0.5-0.1
			c0.2,0.1,0.4,0.2,0.6,0.2c0.5,0,0.9-0.3,0.9-0.7l0,0c0,0,0,0,0.1,0c0.4,0,0.7-0.3,0.7-0.5c0,0,0-0.1,0-0.1c0.1,0,0.1,0,0.2,0
			c0.4,0,0.7-0.3,0.7-0.5c0-0.1,0-0.1-0.1-0.2c0.4-0.1,0.6-0.4,0.6-0.7c0-0.1-0.1-0.3-0.2-0.4c0.1-0.1,0.2-0.3,0.2-0.4
			c0-0.4-0.4-0.7-0.8-0.8c0-0.1,0.1-0.1,0.1-0.2c0-0.3-0.4-0.5-0.8-0.5c0,0,0-0.1,0-0.1c0-0.1-0.1-0.2-0.1-0.4
			c0.1-0.1,0.1-0.2,0.1-0.3c0-0.1-0.1-0.3-0.2-0.4c0.1-0.1,0.2-0.3,0.2-0.4c0-0.3-0.3-0.6-0.7-0.7c0-0.1,0.1-0.1,0.1-0.2
			c0-0.3-0.4-0.5-0.7-0.5c0,0,0-0.1,0-0.1c0-0.3-0.4-0.6-0.9-0.6c-0.2,0-0.4,0.1-0.5,0.1c-0.1-0.1-0.4-0.2-0.6-0.2
			c-0.1,0-0.2,0-0.4,0.1c-0.1-0.1-0.3-0.2-0.5-0.2c0-0.1-0.1-0.2-0.1-0.3c0.1-0.1,0.1-0.2,0.1-0.3c0-0.2-0.2-0.4-0.5-0.5
			c0,0,0-0.1,0-0.1c0-0.2-0.2-0.3-0.5-0.3c0,0,0-0.1,0-0.1c0-0.2-0.3-0.4-0.6-0.4c-0.1,0-0.2,0-0.3,0.1c-0.1-0.1-0.2-0.1-0.4-0.1
			c-0.1,0-0.1,0-0.2,0.1c-0.1-0.1-0.3-0.2-0.5-0.2c-0.3,0-0.6,0.2-0.7,0.4c-0.1,0-0.1,0-0.2,0c-0.2,0-0.4,0.1-0.4,0.3
			c0,0-0.1,0-0.1,0c-0.4,0-0.7,0.3-0.7,0.5c0,0.1,0.1,0.2,0.1,0.3c-0.1,0.1-0.1,0.1-0.1,0.2c0,0.1,0,0.1,0.1,0.1"/>
		<polyline id="polyline12" class="st4" points="111.9,45.3 111.9,0.2 110.3,0.2 110.3,1.7 108.9,1.7 108.9,0.2 107.4,0.2 
			107.4,1.7 106,1.7 106,0.2 104.7,0.2 104.7,1.7 103.3,1.7 103.3,0.2 101.9,0.2 101.9,1.8 100.6,1.8 100.6,0.2 99.1,0.2 99.1,4.2 
			75.6,4.2 		"/>
		<line id="line14" class="st4" x1="84.5" y1="50.7" x2="111.4" y2="50.7"/>
		<polyline id="polyline16" class="st4" points="49.8,50.7 49.8,7.4 75.7,7.4 		"/>
		<polyline id="polyline18" class="st4" points="102,50.7 102,7.4 75.6,7.4 		"/>
		<line id="line20" class="st5" x1="49.8" y1="9.8" x2="102" y2="9.8"/>
		<line id="line22" class="st4" x1="49.8" y1="10.5" x2="101.9" y2="10.5"/>
		<line id="line24" class="st6" x1="55.7" y1="11.7" x2="55.9" y2="11.7"/>
		<line id="line26" class="st6" x1="57.3" y1="11.7" x2="57.5" y2="11.7"/>
		<line id="line28" class="st6" x1="58.9" y1="11.7" x2="59.1" y2="11.7"/>
		<line id="line30" class="st6" x1="62.1" y1="11.7" x2="62.3" y2="11.7"/>
		<line id="line32" class="st6" x1="63.6" y1="11.7" x2="63.9" y2="11.7"/>
		<line id="line34" class="st6" x1="65.3" y1="11.7" x2="65.5" y2="11.7"/>
		<line id="line36" class="st6" x1="60.5" y1="11.7" x2="60.7" y2="11.7"/>
		<line id="line38" class="st6" x1="68.4" y1="11.7" x2="68.6" y2="11.7"/>
		<line id="line40" class="st6" x1="70" y1="11.7" x2="70.2" y2="11.7"/>
		<line id="line42" class="st6" x1="71.6" y1="11.7" x2="71.8" y2="11.7"/>
		<line id="line44" class="st6" x1="66.8" y1="11.7" x2="67" y2="11.7"/>
		<line id="line46" class="st6" x1="74.8" y1="11.7" x2="75" y2="11.7"/>
		<line id="line48" class="st6" x1="76.4" y1="11.7" x2="76.6" y2="11.7"/>
		<line id="line50" class="st6" x1="78" y1="11.7" x2="78.2" y2="11.7"/>
		<line id="line52" class="st6" x1="73.2" y1="11.7" x2="73.4" y2="11.7"/>
		<line id="line54" class="st6" x1="79.6" y1="11.7" x2="79.8" y2="11.7"/>
		<line id="line56" class="st6" x1="82.8" y1="11.7" x2="83" y2="11.7"/>
		<line id="line58" class="st6" x1="84.3" y1="11.7" x2="84.6" y2="11.7"/>
		<line id="line60" class="st6" x1="85.9" y1="11.7" x2="86.2" y2="11.7"/>
		<line id="line62" class="st6" x1="81.2" y1="11.7" x2="81.4" y2="11.7"/>
		<line id="line64" class="st6" x1="87.6" y1="11.7" x2="87.8" y2="11.7"/>
		<line id="line66" class="st6" x1="90.7" y1="11.7" x2="90.9" y2="11.7"/>
		<line id="line68" class="st6" x1="92.3" y1="11.7" x2="92.5" y2="11.7"/>
		<line id="line70" class="st6" x1="93.9" y1="11.7" x2="94.2" y2="11.7"/>
		<line id="line72" class="st6" x1="89.2" y1="11.7" x2="89.4" y2="11.7"/>
		<line id="line74" class="st6" x1="95.5" y1="11.7" x2="95.7" y2="11.7"/>
		<g id="g134">
			<rect id="rect76" x="102" y="13.4" class="st7" width="1.1" height="1.1"/>
			<rect id="rect78" x="102" y="14.4" class="st7" width="0.6" height="1.1"/>
			<rect id="rect80" x="102" y="15.5" class="st7" width="1.7" height="1"/>
			<rect id="rect82" x="102" y="16.6" class="st7" width="0.4" height="1.2"/>
			<rect id="rect84" x="102" y="17.7" class="st7" width="0.7" height="1"/>
			<rect id="rect86" x="102" y="18.7" class="st7" width="0.4" height="0.9"/>
			<rect id="rect88" x="102" y="19.6" class="st7" width="1.8" height="1.4"/>
			<rect id="rect90" x="102" y="21" class="st7" width="0.6" height="1.4"/>
			<rect id="rect92" x="102" y="22.5" class="st7" width="1.1" height="0.8"/>
			<rect id="rect94" x="102" y="23.3" class="st7" width="0.7" height="1"/>
			<rect id="rect96" x="102" y="24.4" class="st7" width="1.2" height="1.4"/>
			<rect id="rect98" x="102" y="25.8" class="st7" width="0.5" height="1"/>
			<rect id="rect100" x="102" y="26.8" class="st7" width="1.7" height="1.3"/>
			<rect id="rect102" x="102" y="28.1" class="st7" width="0.5" height="1.2"/>
			<rect id="rect104" x="102" y="29.3" class="st7" width="1.6" height="1"/>
			<rect id="rect106" x="101.9" y="30.4" class="st7" width="0.9" height="1.4"/>
			<rect id="rect108" x="101.9" y="31.8" class="st7" width="2.4" height="1.2"/>
			<rect id="rect110" x="101.9" y="32.9" class="st7" width="0.5" height="1.4"/>
			<rect id="rect112" x="101.9" y="34.3" class="st7" width="1.4" height="1.4"/>
			<rect id="rect114" x="101.9" y="35.7" class="st7" width="0.9" height="1.4"/>
			<rect id="rect116" x="101.9" y="37.1" class="st7" width="2.2" height="1.4"/>
			<rect id="rect118" x="101.9" y="38.5" class="st7" width="0.7" height="1.7"/>
			<rect id="rect120" x="101.9" y="40.2" class="st7" width="1.6" height="1.7"/>
			<rect id="rect122" x="101.9" y="41.9" class="st7" width="0.6" height="1.7"/>
			<rect id="rect124" x="101.9" y="43.7" class="st7" width="2.8" height="1.4"/>
			<rect id="rect126" x="101.9" y="45.1" class="st7" width="2.1" height="1.5"/>
			<rect id="rect128" x="101.9" y="46.6" class="st7" width="0.8" height="1.5"/>
			<rect id="rect130" x="101.9" y="48.2" class="st7" width="2.5" height="1.4"/>
			<rect id="rect132" x="101.9" y="49.7" class="st7" width="0.9" height="1"/>
		</g>
		<g id="g172">
			<rect id="rect136" x="91.6" y="14.6" class="st4" width="4.2" height="5.7"/>
			<path id="path138" class="st4" d="M92,20v-4.1c0,0,0-0.7,0.7-0.7c0.7,0,0.6,0.6,0.6,0.6V20H92z"/>
			<polyline id="polyline140" class="st4" points="93.3,20 92,20 92,15.9 			"/>
			<path id="path142" class="st4" d="M94,20v-4.1c0,0,0-0.7,0.7-0.7c0.7,0,0.6,0.6,0.6,0.6V20H94z"/>
			<rect id="rect144" x="93.6" y="14" class="st4" width="2.5" height="0.7"/>
			<rect id="rect146" x="95.8" y="14.6" class="st4" width="0.8" height="1.2"/>
			<rect id="rect148" x="95.8" y="15.8" class="st4" width="0.7" height="1.2"/>
			<rect id="rect150" x="95.8" y="17" class="st4" width="0.4" height="1.6"/>
			<rect id="rect152" x="95.8" y="18.7" class="st4" width="0.8" height="1.1"/>
			<rect id="rect154" x="95.8" y="19.7" class="st4" width="0.9" height="1.2"/>
			<rect id="rect156" x="93.7" y="20.4" class="st4" width="2.1" height="0.5"/>
			<rect id="rect158" x="91.2" y="14" class="st4" width="2.5" height="0.7"/>
			<rect id="rect160" x="90.8" y="14.6" class="st4" width="0.8" height="1.2"/>
			<rect id="rect162" x="90.9" y="15.8" class="st4" width="0.7" height="1.2"/>
			<rect id="rect164" x="91.1" y="17" class="st4" width="0.4" height="1.6"/>
			<rect id="rect166" x="90.8" y="18.7" class="st4" width="0.8" height="1.1"/>
			<rect id="rect168" x="90.6" y="19.7" class="st4" width="0.9" height="1.2"/>
			<rect id="rect170" x="91.6" y="20.4" class="st4" width="2" height="0.5"/>
		</g>
		<g id="g210">
			<rect id="rect174" x="91.6" y="26.3" class="st4" width="4.2" height="5.7"/>
			<path id="path176" class="st4" d="M92,31.7v-4.1c0,0,0-0.7,0.7-0.7c0.7,0,0.6,0.6,0.6,0.6v4.1H92z"/>
			<polyline id="polyline178" class="st4" points="93.3,31.7 92,31.7 92,27.6 			"/>
			<path id="path180" class="st4" d="M94,31.7v-4.1c0,0,0-0.7,0.7-0.7c0.7,0,0.6,0.6,0.6,0.6v4.1H94z"/>
			<rect id="rect182" x="93.6" y="25.6" class="st4" width="2.5" height="0.7"/>
			<rect id="rect184" x="95.8" y="26.3" class="st4" width="0.8" height="1.2"/>
			<rect id="rect186" x="95.8" y="27.5" class="st4" width="0.7" height="1.2"/>
			<rect id="rect188" x="95.8" y="28.7" class="st4" width="0.4" height="1.6"/>
			<rect id="rect190" x="95.8" y="30.4" class="st4" width="0.8" height="1.1"/>
			<rect id="rect192" x="95.8" y="31.4" class="st4" width="0.9" height="1.2"/>
			<rect id="rect194" x="93.7" y="32.1" class="st4" width="2.1" height="0.5"/>
			<rect id="rect196" x="91.2" y="25.6" class="st4" width="2.5" height="0.7"/>
			<rect id="rect198" x="90.8" y="26.3" class="st4" width="0.8" height="1.2"/>
			<rect id="rect200" x="90.9" y="27.5" class="st4" width="0.7" height="1.2"/>
			<rect id="rect202" x="91.1" y="28.7" class="st4" width="0.4" height="1.6"/>
			<rect id="rect204" x="90.8" y="30.4" class="st4" width="0.8" height="1.1"/>
			<rect id="rect206" x="90.6" y="31.4" class="st4" width="0.9" height="1.2"/>
			<rect id="rect208" x="91.6" y="32.1" class="st4" width="2" height="0.5"/>
		</g>
		<path id="path212" class="st4" d="M72.1,20v-5.5c0,0,0-0.7,0.7-0.7s0.6,0.6,0.6,0.6V20H72.1z"/>
		<path id="path214" class="st4" d="M74.1,20v-5.5c0,0,0-0.7,0.7-0.7s0.6,0.6,0.6,0.6V20H74.1z"/>
		<path id="path216" class="st4" d="M76.2,20v-5.5c0,0,0-0.7,0.7-0.7s0.6,0.6,0.6,0.6V20H76.2z"/>
		<rect id="rect218" x="71.6" y="13.1" class="st4" width="6.4" height="7.5"/>
		<rect id="rect220" x="76.2" y="12.4" class="st4" width="1.4" height="0.7"/>
		<rect id="rect222" x="74.5" y="12.4" class="st4" width="1.4" height="0.7"/>
		<rect id="rect224" x="72.7" y="12.4" class="st4" width="1.5" height="0.7"/>
		<rect id="rect226" x="71.1" y="12.4" class="st4" width="1.2" height="0.7"/>
		<rect id="rect228" x="78" y="12.4" class="st4" width="0.8" height="0.7"/>
		<rect id="rect230" x="78" y="13.1" class="st4" width="0.6" height="1"/>
		<rect id="rect232" x="78" y="14" class="st4" width="0.4" height="0.3"/>
		<rect id="rect234" x="78" y="14.4" class="st4" width="0.8" height="0.8"/>
		<rect id="rect236" x="78" y="15.1" class="st4" width="0.3" height="0.9"/>
		<rect id="rect238" x="78" y="16" class="st4" width="0.5" height="1.3"/>
		<rect id="rect240" x="78" y="17.3" class="st4" width="1.2" height="1"/>
		<rect id="rect242" x="78" y="18.3" class="st4" width="0.5" height="1"/>
		<rect id="rect244" x="78" y="19.4" class="st4" width="0.7" height="1.4"/>
		<rect id="rect246" x="70.9" y="13.1" class="st4" width="0.7" height="1.3"/>
		<rect id="rect248" x="71.2" y="14.4" class="st4" width="0.4" height="0.9"/>
		<rect id="rect250" x="70.9" y="15.3" class="st4" width="0.6" height="1.2"/>
		<rect id="rect252" x="71.2" y="16.4" class="st4" width="0.4" height="1"/>
		<rect id="rect254" x="70.9" y="17.4" class="st4" width="0.7" height="1"/>
		<rect id="rect256" x="70.7" y="18.4" class="st4" width="0.9" height="1"/>
		<rect id="rect258" x="70.9" y="19.5" class="st4" width="0.6" height="1.4"/>
		<rect id="rect260" x="71.6" y="20.5" class="st4" width="3.1" height="0.6"/>
		<rect id="rect262" x="74.9" y="20.5" class="st4" width="3.1" height="0.6"/>
		<g id="g296">
			<g id="g276">
				<g id="g274">
					<line id="line264" class="st4" x1="64.4" y1="22.4" x2="64.4" y2="25.4"/>
					<g id="g268">
						<rect id="rect266" x="63.4" y="22.3" class="st8" width="1.9" height="0.3"/>
					</g>
					<g id="g272">
						<rect id="rect270" x="63.4" y="25.2" class="st8" width="1.9" height="0.3"/>
					</g>
				</g>
			</g>
			<g id="g290">
				<g id="g288">
					<line id="line278" class="st4" x1="62.9" y1="23.9" x2="65.8" y2="23.9"/>
					<g id="g282">
						<rect id="rect280" x="62.8" y="22.9" class="st8" width="0.3" height="1.9"/>
					</g>
					<g id="g286">
						<rect id="rect284" x="65.7" y="22.9" class="st8" width="0.3" height="1.9"/>
					</g>
				</g>
			</g>
			<circle id="circle292" class="st4" cx="64.4" cy="23.9" r="0.5"/>
			<circle id="circle294" class="st4" cx="64.4" cy="23.9" r="0.2"/>
		</g>
		<g id="g330">
			<g id="g310">
				<g id="g308">
					<line id="line298" class="st4" x1="87.1" y1="22.4" x2="87.1" y2="25.4"/>
					<g id="g302">
						<rect id="rect300" x="86.2" y="22.3" class="st8" width="1.9" height="0.3"/>
					</g>
					<g id="g306">
						<rect id="rect304" x="86.2" y="25.2" class="st8" width="1.9" height="0.3"/>
					</g>
				</g>
			</g>
			<g id="g324">
				<g id="g322">
					<line id="line312" class="st4" x1="85.7" y1="23.9" x2="88.6" y2="23.9"/>
					<g id="g316">
						<rect id="rect314" x="85.5" y="22.9" class="st8" width="0.3" height="1.9"/>
					</g>
					<g id="g320">
						<rect id="rect318" x="88.4" y="22.9" class="st8" width="0.3" height="1.9"/>
					</g>
				</g>
			</g>
			<circle id="circle326" class="st4" cx="87.1" cy="23.9" r="0.5"/>
			<circle id="circle328" class="st4" cx="87.1" cy="23.9" r="0.2"/>
		</g>
		<g id="g358">
			<path id="path332" class="st8" d="M30.8,61.7c0,0.7,0,1.2,0,1.5c0,0.2,0.1,0.4,0.3,0.4c0.1,0,0.3,0,0.3,0c0,0,0.1,0,0.1,0
				c0,0,0,0.1-0.1,0.1c-0.4,0-0.8,0-0.9,0c0,0-0.5,0-0.7,0c-0.1,0-0.1,0-0.1-0.1c0,0,0,0,0.1,0s0.1,0,0.2,0c0.1,0,0.2-0.2,0.2-0.4
				c0-0.3,0-0.9,0-1.5V61c0,0,0,0,0,0h-3c0,0,0,0,0,0v0.7c0,0.7,0,1.2,0,1.5c0,0.2,0.1,0.4,0.3,0.4c0.1,0,0.3,0,0.3,0
				c0,0,0.1,0,0.1,0c0,0,0,0.1-0.1,0.1c-0.4,0-0.8,0-0.9,0c0,0-0.5,0-0.7,0c-0.1,0-0.1,0-0.1-0.1c0,0,0,0,0.1,0s0.1,0,0.2,0
				c0.1,0,0.2-0.2,0.2-0.4c0-0.3,0-0.9,0-1.5v-1.2c0-1.1,0-1.3,0-1.5c0-0.2-0.1-0.4-0.3-0.4c-0.1,0-0.2,0-0.2,0c0,0-0.1,0-0.1,0
				c0,0,0-0.1,0.1-0.1c0.3,0,0.8,0,0.8,0s0.5,0,0.7,0c0.1,0,0.1,0,0.1,0.1c0,0,0,0-0.1,0c-0.1,0-0.1,0-0.2,0c-0.2,0-0.2,0.1-0.3,0.4
				c0,0.2,0,0.4,0,1.5v0.1c0,0,0,0,0,0h3c0,0,0,0,0,0v-0.1c0-1.1,0-1.3,0-1.5c0-0.2-0.1-0.4-0.3-0.4c-0.1,0-0.2,0-0.2,0
				c0,0-0.1,0-0.1,0c0,0,0-0.1,0.1-0.1c0.3,0,0.8,0,0.8,0c0,0,0.5,0,0.7,0c0.1,0,0.1,0,0.1,0.1c0,0,0,0-0.1,0c-0.1,0-0.1,0-0.2,0
				c-0.2,0-0.2,0.1-0.3,0.4c0,0.2,0,0.4,0,1.5L30.8,61.7L30.8,61.7z"/>
			<path id="path334" class="st8" d="M37.2,58.3c1.6,0,2.8,1,2.8,2.7c0,1.6-1.1,2.9-2.8,2.9c-2,0-2.8-1.5-2.8-2.8
				C34.4,59.9,35.3,58.3,37.2,58.3z M37.4,63.6c0.7,0,2-0.4,2-2.5c0-1.7-1-2.6-2.2-2.6c-1.2,0-2.1,0.8-2.1,2.3
				C35.1,62.5,36.1,63.6,37.4,63.6z"/>
			<path id="path336" class="st8" d="M43.7,60.4c0-1.1,0-1.3,0-1.5c0-0.2-0.1-0.4-0.3-0.4c-0.1,0-0.2,0-0.2,0c0,0-0.1,0-0.1,0
				c0,0,0-0.1,0.1-0.1c0.3,0,0.8,0,0.8,0c0.1,0,0.5,0,1,0c0.7,0,2-0.1,2.9,0.8c0.4,0.4,0.7,1,0.7,1.8c0,0.9-0.4,1.6-0.8,2
				c-0.3,0.3-0.9,0.8-2.2,0.8c-0.3,0-0.7,0-1,0c-0.3,0-0.6,0-0.6,0c0,0-0.1,0-0.3,0s-0.3,0-0.4,0c-0.1,0-0.1,0-0.1-0.1
				c0,0,0,0,0.1,0c0.1,0,0.1,0,0.2,0c0.1,0,0.2-0.2,0.2-0.4c0-0.3,0-0.9,0-1.5L43.7,60.4L43.7,60.4z M44.3,61.2c0,0.8,0,1.4,0,1.5
				c0,0.2,0,0.5,0.1,0.5c0.1,0.1,0.4,0.3,1.2,0.3c0.7,0,1.3-0.2,1.7-0.7c0.4-0.4,0.6-1,0.6-1.7c0-0.9-0.4-1.5-0.7-1.8
				c-0.7-0.7-1.5-0.8-2.3-0.8c-0.1,0-0.4,0-0.5,0.1s-0.1,0.1-0.1,0.1c0,0.2,0,1,0,1.5L44.3,61.2L44.3,61.2z"/>
			<path id="path338" class="st8" d="M51.9,63.7c-0.1-0.1-0.1-0.1-0.1-0.3c0-0.4,0-0.7,0-0.8c0-0.1,0-0.1,0.1-0.1c0,0,0.1,0,0.1,0.1
				c0,0.1,0,0.2,0,0.3c0.1,0.5,0.6,0.7,1.1,0.7c0.7,0,1-0.5,1-0.9c0-0.5-0.2-0.8-0.8-1.3l-0.3-0.3c-0.8-0.6-0.9-1.1-0.9-1.5
				c0-0.8,0.6-1.3,1.5-1.3c0.3,0,0.5,0,0.7,0.1c0.1,0,0.2,0,0.2,0c0.1,0,0.1,0,0.1,0.1c0,0.1,0,0.3,0,0.8c0,0.1,0,0.2-0.1,0.2
				c0,0-0.1,0-0.1-0.1c0-0.1-0.1-0.3-0.1-0.4c0-0.1-0.2-0.4-0.9-0.4c-0.5,0-0.9,0.3-0.9,0.8c0,0.4,0.2,0.7,0.9,1.2l0.2,0.1
				c0.8,0.7,1,1.1,1,1.7c0,0.3-0.1,0.8-0.6,1.2c-0.3,0.2-0.7,0.3-1.1,0.3C52.5,63.9,52.2,63.8,51.9,63.7z"/>
			<path id="path340" class="st8" d="M60.5,58.3c1.6,0,2.8,1,2.8,2.7c0,1.6-1.1,2.9-2.8,2.9c-2,0-2.8-1.5-2.8-2.8
				C57.7,59.9,58.6,58.3,60.5,58.3z M60.7,63.6c0.7,0,2-0.4,2-2.5c0-1.7-1-2.6-2.2-2.6c-1.2,0-2.1,0.8-2.1,2.3
				C58.4,62.5,59.4,63.6,60.7,63.6z"/>
			<path id="path342" class="st8" d="M67.3,63.1c-0.7-0.6-0.9-1.4-0.9-2.1c0-0.5,0.2-1.3,0.8-2c0.4-0.4,1.1-0.8,2.2-0.8
				c0.3,0,0.7,0,1,0.1c0.3,0.1,0.5,0.1,0.7,0.1c0.1,0,0.1,0,0.1,0.1c0,0.1,0,0.1,0,0.4c0,0.2,0,0.6,0,0.7c0,0.1,0,0.1-0.1,0.1
				c-0.1,0-0.1-0.1-0.1-0.1c0-0.3-0.1-0.6-0.3-0.7c-0.2-0.2-0.8-0.4-1.4-0.4c-0.9,0-1.4,0.3-1.6,0.5C67.2,59.6,67,60.2,67,61
				c0,1.4,1,2.6,2.6,2.6c0.5,0,0.9-0.1,1.2-0.4c0.1-0.1,0.2-0.5,0.3-0.6c0-0.1,0-0.1,0.1-0.1s0.1,0.1,0.1,0.1c0,0.1-0.1,0.7-0.1,0.9
				c0,0.1-0.1,0.1-0.2,0.2c-0.3,0.1-0.8,0.2-1.3,0.2C68.5,63.9,67.8,63.6,67.3,63.1z"/>
			<path id="path344" class="st8" d="M75.1,60.4c0-1.1,0-1.3,0-1.5c0-0.2-0.1-0.4-0.3-0.4c-0.1,0-0.2,0-0.2,0c0,0-0.1,0-0.1,0
				c0,0,0-0.1,0.1-0.1c0.3,0,0.7,0,0.8,0c0.1,0,0.5,0,0.7,0c0.1,0,0.1,0,0.1,0.1c0,0,0,0-0.1,0c-0.1,0-0.1,0-0.2,0
				c-0.2,0-0.2,0.1-0.3,0.4c0,0.2,0,0.4,0,1.5v0.4h0c0.1-0.1,1.4-1.4,1.7-1.7c0.2-0.2,0.4-0.4,0.4-0.5c0-0.1,0-0.1-0.1-0.1
				c0,0-0.1,0-0.1-0.1s0-0.1,0.1-0.1c0.1,0,0.4,0,0.5,0c0,0,0.5,0,0.7,0c0.1,0,0.1,0,0.1,0.1c0,0,0,0.1-0.1,0.1
				c-0.1,0-0.3,0-0.4,0.1c-0.3,0.1-0.4,0.3-0.8,0.6c-0.2,0.2-1.4,1.4-1.6,1.6c0.2,0.2,1.7,1.7,2,2c0.6,0.6,0.7,0.7,1.1,0.8
				c0.2,0.1,0.4,0.1,0.4,0.1s0.1,0,0.1,0s0,0.1-0.1,0.1h-0.4c-0.2,0-0.3,0-0.5,0c-0.4,0-0.6-0.2-0.9-0.4c-0.3-0.3-1.8-1.9-2.2-2.3h0
				v0.7c0,0.7,0,1.2,0,1.5c0,0.2,0.1,0.4,0.3,0.4c0.1,0,0.2,0,0.3,0c0,0,0.1,0,0.1,0c0,0,0,0.1-0.1,0.1c-0.4,0-0.8,0-0.8,0
				c-0.1,0-0.5,0-0.7,0c-0.1,0-0.1,0-0.1-0.1c0,0,0,0,0.1,0c0.1,0,0.1,0,0.2,0c0.1,0,0.2-0.2,0.2-0.4c0-0.3,0-0.9,0-1.5L75.1,60.4
				L75.1,60.4z"/>
			<path id="path346" class="st8" d="M87,60.4c0-1.1,0-1.3,0-1.5c0-0.2-0.1-0.4-0.3-0.4c-0.1,0-0.2,0-0.2,0c0,0-0.1,0-0.1,0
				c0,0,0-0.1,0.1-0.1c0.3,0,0.7,0,0.8,0c0.1,0,0.6,0,0.9,0c0.9,0,1.2,0.3,1.3,0.4c0.1,0.1,0.4,0.5,0.4,0.9c0,1-0.7,1.7-1.7,1.7
				c0,0-0.1,0-0.1,0c0,0-0.1,0-0.1-0.1c0-0.1,0-0.1,0.2-0.1c0.7,0,1.2-0.5,1.2-1.2c0-0.2,0-0.7-0.4-1.1c-0.4-0.4-0.8-0.4-1-0.4
				c-0.1,0-0.2,0-0.3,0c0,0-0.1,0.1-0.1,0.1v2.9c0,0.7,0,1.2,0,1.5c0,0.2,0.1,0.4,0.3,0.4c0.1,0,0.3,0,0.3,0c0,0,0.1,0,0.1,0
				c0,0,0,0.1-0.1,0.1c-0.4,0-0.8,0-0.9,0c0,0-0.5,0-0.7,0c-0.1,0-0.1,0-0.1-0.1c0,0,0,0,0.1,0c0.1,0,0.1,0,0.2,0
				c0.1,0,0.2-0.2,0.2-0.4c0-0.3,0-0.9,0-1.5L87,60.4L87,60.4z"/>
			<path id="path348" class="st8" d="M93.6,60.4c0-1.1,0-1.3,0-1.5c0-0.2-0.1-0.4-0.3-0.4c-0.1,0-0.2,0-0.2,0c0,0-0.1,0-0.1,0
				c0,0,0-0.1,0.1-0.1c0.3,0,0.8,0,0.8,0c0.1,0,0.6,0,0.8,0c0.4,0,0.9,0,1.3,0.3c0.2,0.1,0.5,0.5,0.5,1c0,0.5-0.2,1.1-0.9,1.7
				c0.6,0.7,1.1,1.4,1.5,1.8c0.4,0.4,0.7,0.5,0.9,0.5c0.1,0,0.2,0,0.3,0s0.1,0,0.1,0c0,0,0,0.1-0.2,0.1h-0.5c-0.4,0-0.6,0-0.8-0.1
				c-0.3-0.2-0.6-0.5-1-1c-0.3-0.4-0.6-0.9-0.8-1.1c0,0-0.1,0-0.1,0h-0.9c0,0-0.1,0-0.1,0.1v0.2c0,0.7,0,1.2,0,1.5
				c0,0.2,0.1,0.4,0.3,0.4c0.1,0,0.3,0,0.3,0c0,0,0.1,0,0.1,0c0,0,0,0.1-0.1,0.1c-0.4,0-0.8,0-0.9,0c0,0-0.4,0-0.7,0
				c-0.1,0-0.1,0-0.1-0.1c0,0,0,0,0.1,0c0.1,0,0.1,0,0.2,0c0.1,0,0.2-0.2,0.2-0.4c0-0.3,0-0.9,0-1.5L93.6,60.4L93.6,60.4z
				 M94.2,61.1C94.2,61.1,94.2,61.1,94.2,61.1c0.2,0.1,0.5,0.2,0.8,0.2c0.2,0,0.4,0,0.5-0.1c0.2-0.2,0.4-0.6,0.4-1.1
				c0-0.9-0.5-1.4-1.2-1.4c-0.2,0-0.4,0-0.5,0c0,0-0.1,0-0.1,0.1L94.2,61.1L94.2,61.1z"/>
			<path id="path350" class="st8" d="M101.7,61.7c0,0.7,0,1.2,0,1.5c0,0.2,0.1,0.4,0.3,0.4c0.1,0,0.3,0,0.3,0c0,0,0.1,0,0.1,0
				c0,0,0,0.1-0.1,0.1c-0.4,0-0.8,0-0.9,0c0,0-0.5,0-0.7,0c-0.1,0-0.1,0-0.1-0.1c0,0,0,0,0.1,0c0.1,0,0.1,0,0.2,0
				c0.1,0,0.2-0.2,0.2-0.4c0-0.3,0-0.9,0-1.5v-1.2c0-1.1,0-1.3,0-1.5c0-0.2-0.1-0.4-0.2-0.4c-0.1,0-0.2,0-0.2,0c0,0-0.1,0-0.1,0
				c0,0,0-0.1,0.1-0.1c0.2,0,0.7,0,0.7,0s0.5,0,0.7,0c0.1,0,0.1,0,0.1,0.1c0,0,0,0-0.1,0c-0.1,0-0.1,0-0.2,0c-0.2,0-0.2,0.1-0.3,0.4
				c0,0.2,0,0.4,0,1.5L101.7,61.7L101.7,61.7z"/>
			<path id="path352" class="st8" d="M108.2,58.3c1.6,0,2.8,1,2.8,2.7c0,1.6-1.1,2.9-2.8,2.9c-2,0-2.8-1.5-2.8-2.8
				C105.4,59.9,106.2,58.3,108.2,58.3z M108.3,63.6c0.7,0,2-0.4,2-2.5c0-1.7-1-2.6-2.2-2.6c-1.2,0-2.1,0.8-2.1,2.3
				C106.1,62.5,107.1,63.6,108.3,63.6z"/>
			<path id="path354" class="st8" d="M114.6,60.4c0-1.1,0-1.3,0-1.5c0-0.2-0.1-0.4-0.3-0.4c-0.1,0-0.2,0-0.2,0c0,0-0.1,0-0.1,0
				c0,0,0-0.1,0.1-0.1c0.3,0,0.8,0,0.8,0c0.1,0,0.6,0,0.8,0c0.4,0,0.9,0,1.3,0.3c0.2,0.1,0.5,0.5,0.5,1c0,0.5-0.2,1.1-0.9,1.7
				c0.6,0.7,1.1,1.4,1.5,1.8c0.4,0.4,0.7,0.5,0.9,0.5c0.1,0,0.2,0,0.3,0s0.1,0,0.1,0c0,0,0,0.1-0.2,0.1h-0.5c-0.4,0-0.6,0-0.8-0.1
				c-0.3-0.2-0.6-0.5-1-1c-0.3-0.4-0.6-0.9-0.8-1.1c0,0-0.1,0-0.1,0h-0.9c0,0-0.1,0-0.1,0.1v0.2c0,0.7,0,1.2,0,1.5
				c0,0.2,0.1,0.4,0.3,0.4c0.1,0,0.3,0,0.3,0c0,0,0.1,0,0.1,0c0,0,0,0.1-0.1,0.1c-0.4,0-0.8,0-0.9,0c0,0-0.4,0-0.7,0
				c-0.1,0-0.1,0-0.1-0.1c0,0,0,0,0.1,0c0.1,0,0.1,0,0.2,0c0.1,0,0.2-0.2,0.2-0.4c0-0.3,0-0.9,0-1.5L114.6,60.4L114.6,60.4z
				 M115.2,61.1C115.2,61.1,115.2,61.1,115.2,61.1c0.2,0.1,0.5,0.2,0.8,0.2c0.2,0,0.4,0,0.5-0.1c0.2-0.2,0.4-0.6,0.4-1.1
				c0-0.9-0.5-1.4-1.2-1.4c-0.2,0-0.4,0-0.5,0c0,0-0.1,0-0.1,0.1L115.2,61.1L115.2,61.1z"/>
			<path id="path356" class="st8" d="M122.8,61.9c0-0.4-0.1-0.5-0.2-0.7c-0.1-0.1-1-1.7-1.2-2c-0.2-0.3-0.4-0.4-0.5-0.5
				c-0.1-0.1-0.2-0.1-0.3-0.1c0,0-0.1,0-0.1-0.1c0,0,0-0.1,0.1-0.1c0.1,0,0.7,0,0.7,0c0.1,0,0.3,0,0.6,0c0.1,0,0.1,0,0.1,0.1
				s0,0-0.1,0.1c-0.1,0-0.1,0.1-0.1,0.1c0,0.1,0,0.2,0.1,0.3c0.1,0.2,1.2,2,1.3,2.2c0.1-0.3,1-1.9,1.2-2.1c0.1-0.1,0.1-0.3,0.1-0.4
				c0-0.1,0-0.2-0.1-0.2c-0.1,0-0.1,0-0.1-0.1s0,0,0.1,0c0.2,0,0.4,0,0.5,0c0,0,0.6,0,0.7,0c0.1,0,0.1,0,0.1,0s0,0.1-0.1,0.1
				c-0.1,0-0.2,0-0.3,0.1c-0.1,0.1-0.2,0.2-0.4,0.4c-0.2,0.3-1.2,2-1.4,2.3c-0.1,0.3-0.1,0.5-0.1,0.7v0.6c0,0.1,0,0.4,0,0.7
				c0,0.2,0.1,0.4,0.3,0.4c0.1,0,0.3,0,0.3,0c0,0,0.1,0,0.1,0c0,0,0,0.1-0.1,0.1c-0.4,0-0.8,0-0.9,0c-0.1,0-0.5,0-0.7,0
				c-0.1,0-0.1,0-0.1-0.1c0,0,0,0,0.1,0c0.1,0,0.1,0,0.2,0c0.1,0,0.2-0.2,0.2-0.4c0-0.3,0-0.6,0-0.7L122.8,61.9L122.8,61.9z"/>
		</g>
		<g id="g468">
			<rect id="rect360" x="55.1" y="38.4" class="st4" width="4.2" height="5.7"/>
			<path id="path362" class="st4" d="M55.5,20v-4.1c0,0,0-0.7,0.7-0.7c0.7,0,0.6,0.6,0.6,0.6V20H55.5z"/>
			<polyline id="polyline364" class="st4" points="56.8,20 55.5,20 55.5,15.9 			"/>
			<path id="path366" class="st4" d="M57.5,43.7v-4.1c0,0,0-0.7,0.7-0.7c0.7,0,0.6,0.6,0.6,0.6v4.1H57.5z"/>
			<rect id="rect368" x="57.1" y="14" class="st4" width="2.5" height="0.7"/>
			<rect id="rect370" x="59.3" y="14.6" class="st4" width="0.8" height="1.2"/>
			<rect id="rect372" x="59.3" y="15.8" class="st4" width="0.7" height="1.2"/>
			<rect id="rect374" x="59.3" y="17" class="st4" width="0.4" height="1.6"/>
			<rect id="rect376" x="59.3" y="18.7" class="st4" width="0.8" height="1.1"/>
			<rect id="rect378" x="59.3" y="19.7" class="st4" width="0.9" height="1.2"/>
			<rect id="rect380" x="57.2" y="44.1" class="st4" width="2.1" height="0.5"/>
			<rect id="rect382" x="54.7" y="14" class="st4" width="2.5" height="0.7"/>
			<rect id="rect384" x="54.3" y="14.6" class="st4" width="0.8" height="1.2"/>
			<rect id="rect386" x="54.4" y="15.8" class="st4" width="0.7" height="1.2"/>
			<rect id="rect388" x="54.6" y="17" class="st4" width="0.4" height="1.6"/>
			<rect id="rect390" x="54.3" y="18.7" class="st4" width="0.8" height="1.1"/>
			<rect id="rect392" x="54.1" y="19.7" class="st4" width="0.9" height="1.2"/>
			<rect id="rect394" x="55.1" y="20.4" class="st4" width="2" height="0.5"/>
			<rect id="rect396" x="55.1" y="14.6" class="st4" width="4.2" height="5.7"/>
			<path id="path398" class="st4" d="M55.5,31.7v-4.1c0,0,0-0.7,0.7-0.7c0.7,0,0.6,0.6,0.6,0.6v4.1H55.5z"/>
			<polyline id="polyline400" class="st4" points="56.8,31.7 55.5,31.7 55.5,27.6 			"/>
			<path id="path402" class="st4" d="M57.5,20v-4.1c0,0,0-0.7,0.7-0.7c0.7,0,0.6,0.6,0.6,0.6V20H57.5z"/>
			<rect id="rect404" x="57.1" y="25.6" class="st4" width="2.5" height="0.7"/>
			<rect id="rect406" x="59.3" y="26.3" class="st4" width="0.8" height="1.2"/>
			<rect id="rect408" x="59.3" y="27.5" class="st4" width="0.7" height="1.2"/>
			<rect id="rect410" x="59.3" y="28.7" class="st4" width="0.4" height="1.6"/>
			<rect id="rect412" x="59.3" y="30.4" class="st4" width="0.8" height="1.1"/>
			<rect id="rect414" x="59.3" y="43.5" class="st4" width="0.9" height="1.2"/>
			<rect id="rect416" x="57.2" y="20.4" class="st4" width="2.1" height="0.5"/>
			<rect id="rect418" x="54.7" y="25.6" class="st4" width="2.5" height="0.7"/>
			<rect id="rect420" x="54.3" y="26.3" class="st4" width="0.8" height="1.2"/>
			<rect id="rect422" x="54.4" y="27.5" class="st4" width="0.7" height="1.2"/>
			<rect id="rect424" x="54.6" y="28.7" class="st4" width="0.4" height="1.6"/>
			<rect id="rect426" x="54.3" y="30.4" class="st4" width="0.8" height="1.1"/>
			<rect id="rect428" x="54.1" y="31.4" class="st4" width="0.9" height="1.2"/>
			<rect id="rect430" x="55.1" y="32.1" class="st4" width="2" height="0.5"/>
			<rect id="rect432" x="55.1" y="26.3" class="st4" width="4.2" height="5.7"/>
			<path id="path434" class="st4" d="M57.5,31.7v-4.1c0,0,0-0.7,0.7-0.7c0.7,0,0.6,0.6,0.6,0.6v4.1H57.5z"/>
			<rect id="rect436" x="57.2" y="32.1" class="st4" width="2.1" height="0.5"/>
			<path id="path438" class="st4" d="M55.5,43.7v-4.1c0,0,0-0.7,0.7-0.7c0.7,0,0.6,0.6,0.6,0.6v4.1H55.5z"/>
			<polyline id="polyline440" class="st4" points="56.8,43.7 55.5,43.7 55.5,39.6 			"/>
			<rect id="rect442" x="57.1" y="37.7" class="st4" width="2.5" height="0.7"/>
			<rect id="rect444" x="59.3" y="38.4" class="st4" width="0.8" height="1.2"/>
			<rect id="rect446" x="59.3" y="39.5" class="st4" width="0.7" height="1.2"/>
			<rect id="rect448" x="59.3" y="40.8" class="st4" width="0.4" height="1.6"/>
			<rect id="rect450" x="59.3" y="42.4" class="st4" width="0.8" height="1.1"/>
			<rect id="rect452" x="59.3" y="31.4" class="st4" width="0.9" height="1.2"/>
			<rect id="rect454" x="54.7" y="37.7" class="st4" width="2.5" height="0.7"/>
			<rect id="rect456" x="54.3" y="38.4" class="st4" width="0.8" height="1.2"/>
			<rect id="rect458" x="54.4" y="39.5" class="st4" width="0.7" height="1.2"/>
			<rect id="rect460" x="54.6" y="40.8" class="st4" width="0.4" height="1.6"/>
			<rect id="rect462" x="54.3" y="42.4" class="st4" width="0.8" height="1.1"/>
			<rect id="rect464" x="54.1" y="43.5" class="st4" width="0.9" height="1.2"/>
			<rect id="rect466" x="55.1" y="44.1" class="st4" width="2" height="0.5"/>
		</g>
		<g id="g506">
			<rect id="rect470" x="91.6" y="38.4" class="st4" width="4.2" height="5.7"/>
			<path id="path472" class="st4" d="M92,43.7v-4.1c0,0,0-0.7,0.7-0.7c0.7,0,0.6,0.6,0.6,0.6v4.1H92z"/>
			<polyline id="polyline474" class="st4" points="93.3,43.7 92,43.7 92,39.6 			"/>
			<path id="path476" class="st4" d="M94,43.7v-4.1c0,0,0-0.7,0.7-0.7c0.7,0,0.6,0.6,0.6,0.6v4.1H94z"/>
			<rect id="rect478" x="93.6" y="37.7" class="st4" width="2.5" height="0.7"/>
			<rect id="rect480" x="95.8" y="38.4" class="st4" width="0.8" height="1.2"/>
			<rect id="rect482" x="95.8" y="39.5" class="st4" width="0.7" height="1.2"/>
			<rect id="rect484" x="95.8" y="40.8" class="st4" width="0.4" height="1.6"/>
			<rect id="rect486" x="95.8" y="42.4" class="st4" width="0.8" height="1.1"/>
			<rect id="rect488" x="95.8" y="43.5" class="st4" width="0.9" height="1.2"/>
			<rect id="rect490" x="93.7" y="44.1" class="st4" width="2.1" height="0.5"/>
			<rect id="rect492" x="91.2" y="37.7" class="st4" width="2.5" height="0.7"/>
			<rect id="rect494" x="90.8" y="38.4" class="st4" width="0.8" height="1.2"/>
			<rect id="rect496" x="90.9" y="39.5" class="st4" width="0.7" height="1.2"/>
			<rect id="rect498" x="91.1" y="40.8" class="st4" width="0.4" height="1.6"/>
			<rect id="rect500" x="90.8" y="42.4" class="st4" width="0.8" height="1.1"/>
			<rect id="rect502" x="90.6" y="43.5" class="st4" width="0.9" height="1.2"/>
			<rect id="rect504" x="91.6" y="44.1" class="st4" width="2" height="0.5"/>
		</g>
		<polyline id="polyline508" class="st4" points="111.9,1.7 113.2,1.7 113.2,0.2 114.6,0.2 114.6,43.6 		"/>
		<line id="line510" class="st4" x1="101.9" y1="7.4" x2="101.9" y2="1.8"/>
		<path id="path512" class="st4" d="M87.2,50.7l0-12.1c-0.2-6.2-5.3-11.2-11.6-11.2s-11.3,5-11.6,11.2l0,12.1"/>
		<path id="path514" class="st4" d="M64.9,50.7l0-12c0.2-5.7,4.9-10.3,10.7-10.3S86,33.1,86.2,38.8l0,12"/>
		<path id="path516" class="st4" d="M86.2,50.7l0-12c-0.2-5.7-4.9-10.3-10.7-10.3s-10.5,4.6-10.7,10.3l0,12"/>
		<path id="path518" class="st9" d="M66.7,50.7V39.1h0c0.2-4.8,4.1-8.5,8.9-8.5s8.7,3.8,8.9,8.5h0v11.7"/>
		<path id="path520" class="st10" d="M84.4,50.8l0-11.7c-0.2-4.8-4.1-8.6-8.9-8.6s-8.7,3.8-8.9,8.6l0,11.7"/>
		<path id="path522" class="st11" d="M84.4,50.7"/>
		<path id="path524" class="st11" d="M66.7,50.7"/>
		<g id="g582">
			<rect id="rect526" x="110.7" y="13.4" class="st7" width="1.2" height="1.1"/>
			<rect id="rect528" x="111.3" y="14.4" class="st7" width="0.6" height="1.1"/>
			<rect id="rect530" x="110.1" y="15.5" class="st7" width="1.7" height="1"/>
			<rect id="rect532" x="111.4" y="16.6" class="st7" width="0.4" height="1.2"/>
			<rect id="rect534" x="111.1" y="17.7" class="st7" width="0.7" height="1"/>
			<rect id="rect536" x="111.4" y="18.7" class="st7" width="0.4" height="0.9"/>
			<rect id="rect538" x="110.1" y="19.6" class="st7" width="1.8" height="1.4"/>
			<rect id="rect540" x="111.3" y="21" class="st7" width="0.6" height="1.4"/>
			<rect id="rect542" x="110.8" y="22.5" class="st7" width="1.1" height="0.8"/>
			<rect id="rect544" x="111.1" y="23.3" class="st7" width="0.7" height="1"/>
			<rect id="rect546" x="110.7" y="24.4" class="st7" width="1.2" height="1.4"/>
			<rect id="rect548" x="111.4" y="25.8" class="st7" width="0.5" height="1"/>
			<rect id="rect550" x="110.1" y="26.8" class="st7" width="1.7" height="1.3"/>
			<rect id="rect552" x="111.4" y="28.1" class="st7" width="0.5" height="1.2"/>
			<rect id="rect554" x="110.2" y="29.3" class="st7" width="1.6" height="1"/>
			<rect id="rect556" x="110.9" y="30.4" class="st7" width="0.9" height="1.4"/>
			<rect id="rect558" x="109.4" y="31.8" class="st7" width="2.4" height="1.2"/>
			<rect id="rect560" x="111.4" y="32.9" class="st7" width="0.5" height="1.4"/>
			<rect id="rect562" x="110.5" y="34.3" class="st7" width="1.4" height="1.4"/>
			<rect id="rect564" x="111" y="35.7" class="st7" width="0.9" height="1.4"/>
			<rect id="rect566" x="109.7" y="37.1" class="st7" width="2.2" height="1.4"/>
			<rect id="rect568" x="111.1" y="38.5" class="st7" width="0.7" height="1.7"/>
			<rect id="rect570" x="110.3" y="40.2" class="st7" width="1.6" height="1.7"/>
			<rect id="rect572" x="111.2" y="41.9" class="st7" width="0.6" height="1.7"/>
			<rect id="rect574" x="109" y="43.7" class="st7" width="2.8" height="1.4"/>
			<polyline id="polyline576" class="st7" points="111.9,45.1 109.8,45.1 109.8,46.6 111.2,46.6 			"/>
			<polyline id="polyline578" class="st7" points="111.2,46.6 111,46.6 111,47.7 			"/>
			<polyline id="polyline580" class="st7" points="110.5,48.2 109.4,48.2 109.4,49.7 110.6,49.7 			"/>
		</g>
		<polyline id="polyline584" class="st4" points="39.9,45.1 39.9,0.2 41.5,0.2 41.5,1.7 42.9,1.7 42.9,0.2 44.3,0.2 44.3,1.7 
			45.7,1.7 45.7,0.2 47.1,0.2 47.1,1.7 48.4,1.7 48.4,0.2 49.8,0.2 49.8,1.8 51.2,1.8 51.2,0.2 52.6,0.2 52.6,4.2 75.6,4.2 		"/>
		<line id="line586" class="st4" x1="67.3" y1="50.7" x2="40.5" y2="50.7"/>
		<g id="g646">
			<rect id="rect588" x="48.7" y="13.4" class="st7" width="1.2" height="1.1"/>
			<rect id="rect590" x="49.2" y="14.4" class="st7" width="0.6" height="1.1"/>
			<rect id="rect592" x="48.1" y="15.5" class="st7" width="1.7" height="1"/>
			<rect id="rect594" x="49.4" y="16.6" class="st7" width="0.4" height="1.2"/>
			<rect id="rect596" x="49.1" y="17.7" class="st7" width="0.7" height="1"/>
			<rect id="rect598" x="49.4" y="18.7" class="st7" width="0.4" height="0.9"/>
			<rect id="rect600" x="48" y="19.6" class="st7" width="1.8" height="1.4"/>
			<rect id="rect602" x="49.2" y="21" class="st7" width="0.6" height="1.4"/>
			<rect id="rect604" x="48.7" y="22.5" class="st7" width="1.1" height="0.8"/>
			<rect id="rect606" x="49" y="23.3" class="st7" width="0.7" height="1"/>
			<rect id="rect608" x="48.6" y="24.4" class="st7" width="1.2" height="1.4"/>
			<rect id="rect610" x="49.3" y="25.8" class="st7" width="0.5" height="1"/>
			<rect id="rect612" x="48" y="26.8" class="st7" width="1.7" height="1.3"/>
			<rect id="rect614" x="49.3" y="28.1" class="st7" width="0.5" height="1.2"/>
			<rect id="rect616" x="48.2" y="29.3" class="st7" width="1.6" height="1"/>
			<rect id="rect618" x="48.9" y="30.4" class="st7" width="0.9" height="1.4"/>
			<rect id="rect620" x="47.4" y="31.8" class="st7" width="2.4" height="1.2"/>
			<rect id="rect622" x="49.3" y="32.9" class="st7" width="0.5" height="1.4"/>
			<rect id="rect624" x="48.4" y="34.3" class="st7" width="1.4" height="1.4"/>
			<rect id="rect626" x="48.9" y="35.7" class="st7" width="0.9" height="1.4"/>
			<rect id="rect628" x="47.6" y="37.1" class="st7" width="2.2" height="1.4"/>
			<rect id="rect630" x="49.1" y="38.5" class="st7" width="0.7" height="1.7"/>
			<rect id="rect632" x="48.2" y="40.2" class="st7" width="1.6" height="1.7"/>
			<rect id="rect634" x="49.2" y="41.9" class="st7" width="0.6" height="1.7"/>
			<rect id="rect636" x="47" y="43.7" class="st7" width="2.8" height="1.4"/>
			<rect id="rect638" x="47.7" y="45.1" class="st7" width="2.1" height="1.5"/>
			<rect id="rect640" x="49" y="46.6" class="st7" width="0.8" height="1.5"/>
			<rect id="rect642" x="47.4" y="48.2" class="st7" width="2.5" height="1.4"/>
			<rect id="rect644" x="48.9" y="49.7" class="st7" width="0.9" height="1"/>
		</g>
		<polyline id="polyline648" class="st4" points="39.9,1.7 38.5,1.7 38.5,0.2 37.1,0.2 37.1,43.4 		"/>
		<line id="line650" class="st4" x1="49.8" y1="7.4" x2="49.8" y2="1.8"/>
		<g id="g708">
			<rect id="rect652" x="39.9" y="13.4" class="st7" width="1.2" height="1.1"/>
			<rect id="rect654" x="39.9" y="14.4" class="st7" width="0.6" height="1.1"/>
			<rect id="rect656" x="39.9" y="15.5" class="st7" width="1.7" height="1"/>
			<rect id="rect658" x="39.9" y="16.6" class="st7" width="0.4" height="1.2"/>
			<rect id="rect660" x="39.9" y="17.7" class="st7" width="0.7" height="1"/>
			<rect id="rect662" x="39.9" y="18.7" class="st7" width="0.4" height="0.9"/>
			<rect id="rect664" x="39.9" y="19.6" class="st7" width="1.8" height="1.4"/>
			<rect id="rect666" x="39.9" y="21" class="st7" width="0.6" height="1.4"/>
			<rect id="rect668" x="39.9" y="22.5" class="st7" width="1.1" height="0.8"/>
			<rect id="rect670" x="39.9" y="23.3" class="st7" width="0.7" height="1"/>
			<rect id="rect672" x="39.9" y="24.4" class="st7" width="1.2" height="1.4"/>
			<rect id="rect674" x="39.9" y="25.8" class="st7" width="0.5" height="1"/>
			<rect id="rect676" x="39.9" y="26.8" class="st7" width="1.7" height="1.3"/>
			<rect id="rect678" x="39.9" y="28.1" class="st7" width="0.5" height="1.2"/>
			<rect id="rect680" x="39.9" y="29.3" class="st7" width="1.6" height="1"/>
			<rect id="rect682" x="39.9" y="30.4" class="st7" width="0.9" height="1.4"/>
			<rect id="rect684" x="39.9" y="31.8" class="st7" width="2.4" height="1.2"/>
			<rect id="rect686" x="39.9" y="32.9" class="st7" width="0.5" height="1.4"/>
			<rect id="rect688" x="39.9" y="34.3" class="st7" width="1.4" height="1.4"/>
			<rect id="rect690" x="39.9" y="35.7" class="st7" width="0.9" height="1.4"/>
			<rect id="rect692" x="39.9" y="37.1" class="st7" width="2.2" height="1.4"/>
			<rect id="rect694" x="39.9" y="38.5" class="st7" width="0.7" height="1.7"/>
			<rect id="rect696" x="39.9" y="40.2" class="st7" width="1.6" height="1.7"/>
			<rect id="rect698" x="39.9" y="41.9" class="st7" width="0.6" height="1.7"/>
			<rect id="rect700" x="39.9" y="43.7" class="st7" width="2.8" height="1.4"/>
			<polyline id="polyline702" class="st7" points="39.9,45.1 42,45.1 42,46.6 40.7,46.6 			"/>
			<line id="line704" class="st7" x1="40.7" y1="46.6" x2="40.7" y2="47.5"/>
			<polyline id="polyline706" class="st7" points="41.5,48.2 42.3,48.2 42.3,49.7 41.3,49.7 			"/>
		</g>
		<line id="line710" class="st6" x1="54.1" y1="11.7" x2="54.3" y2="11.7"/>
		<line id="line712" class="st6" x1="54.1" y1="11.7" x2="54.3" y2="11.7"/>
		<line id="line714" class="st6" x1="52.5" y1="11.7" x2="52.7" y2="11.7"/>
		<g id="g988">
			<g id="g722">
				<line id="line716" class="st6" x1="58.9" y1="11.7" x2="58.3" y2="11.3"/>
				<line id="line718" class="st6" x1="58.1" y1="11.3" x2="57.5" y2="11.7"/>
				<path id="path720" class="st6" d="M58.3,11.3c0.1,0,0.2-0.1,0.2-0.3c0-0.1-0.1-0.3-0.3-0.3c-0.1,0-0.3,0.1-0.3,0.3
					c0,0.1,0.1,0.2,0.2,0.3"/>
			</g>
			<g id="g730">
				<line id="line724" class="st6" x1="55.7" y1="11.7" x2="55.2" y2="11.3"/>
				<line id="line726" class="st6" x1="54.9" y1="11.3" x2="54.4" y2="11.7"/>
				<path id="path728" class="st6" d="M55.2,11.3c0.1,0,0.2-0.1,0.2-0.3c0-0.1-0.1-0.3-0.3-0.3c-0.2,0-0.3,0.1-0.3,0.3
					c0,0.1,0.1,0.2,0.2,0.3"/>
			</g>
			<g id="g738">
				<line id="line732" class="st6" x1="57.3" y1="11.7" x2="56.8" y2="11.3"/>
				<line id="line734" class="st6" x1="56.5" y1="11.3" x2="56" y2="11.7"/>
				<path id="path736" class="st6" d="M56.8,11.3c0.1,0,0.2-0.1,0.2-0.3c0-0.1-0.1-0.3-0.3-0.3c-0.2,0-0.3,0.1-0.3,0.3
					c0,0.1,0.1,0.2,0.1,0.3"/>
			</g>
			<g id="g746">
				<line id="line740" class="st6" x1="60.5" y1="11.7" x2="59.9" y2="11.3"/>
				<line id="line742" class="st6" x1="59.7" y1="11.3" x2="59.1" y2="11.7"/>
				<path id="path744" class="st6" d="M59.9,11.3c0.1,0,0.2-0.1,0.2-0.3c0-0.1-0.1-0.3-0.3-0.3c-0.2,0-0.3,0.1-0.3,0.3
					c0,0.1,0.1,0.2,0.1,0.3"/>
			</g>
			<g id="g754">
				<line id="line748" class="st6" x1="65.2" y1="11.7" x2="64.7" y2="11.3"/>
				<line id="line750" class="st6" x1="64.5" y1="11.3" x2="63.9" y2="11.7"/>
				<path id="path752" class="st6" d="M64.7,11.3c0.1,0,0.2-0.1,0.2-0.3c0-0.1-0.1-0.3-0.3-0.3c-0.2,0-0.3,0.1-0.3,0.3
					c0,0.1,0.1,0.2,0.1,0.3"/>
			</g>
			<g id="g762">
				<line id="line756" class="st6" x1="62.1" y1="11.7" x2="61.5" y2="11.3"/>
				<line id="line758" class="st6" x1="61.3" y1="11.3" x2="60.7" y2="11.7"/>
				<path id="path760" class="st6" d="M61.5,11.3c0.1,0,0.2-0.1,0.2-0.3c0-0.1-0.1-0.3-0.3-0.3c-0.1,0-0.3,0.1-0.3,0.3
					c0,0.1,0.1,0.2,0.1,0.3"/>
			</g>
			<g id="g770">
				<line id="line764" class="st6" x1="63.6" y1="11.7" x2="63.1" y2="11.3"/>
				<line id="line766" class="st6" x1="62.9" y1="11.3" x2="62.3" y2="11.7"/>
				<path id="path768" class="st6" d="M63.1,11.3c0.1,0,0.2-0.1,0.2-0.3c0-0.1-0.1-0.3-0.3-0.3c-0.1,0-0.3,0.1-0.3,0.3
					c0,0.1,0.1,0.2,0.2,0.3"/>
			</g>
			<g id="g778">
				<line id="line772" class="st6" x1="66.8" y1="11.7" x2="66.3" y2="11.3"/>
				<line id="line774" class="st6" x1="66.1" y1="11.3" x2="65.5" y2="11.7"/>
				<path id="path776" class="st6" d="M66.3,11.3c0.1,0,0.2-0.1,0.2-0.3c0-0.1-0.1-0.3-0.3-0.3c-0.1,0-0.3,0.1-0.3,0.3
					c0,0.1,0.1,0.2,0.1,0.3"/>
			</g>
			<g id="g786">
				<line id="line780" class="st6" x1="71.6" y1="11.7" x2="71" y2="11.3"/>
				<line id="line782" class="st6" x1="70.8" y1="11.3" x2="70.2" y2="11.7"/>
				<path id="path784" class="st6" d="M71,11.3c0.1,0,0.2-0.1,0.2-0.3c0-0.1-0.1-0.3-0.3-0.3c-0.1,0-0.3,0.1-0.3,0.3
					c0,0.1,0.1,0.2,0.1,0.3"/>
			</g>
			<g id="g794">
				<line id="line788" class="st6" x1="68.4" y1="11.7" x2="67.9" y2="11.3"/>
				<line id="line790" class="st6" x1="67.6" y1="11.3" x2="67" y2="11.7"/>
				<path id="path792" class="st6" d="M67.9,11.3c0.1,0,0.2-0.1,0.2-0.3c0-0.1-0.1-0.3-0.3-0.3c-0.1,0-0.3,0.1-0.3,0.3
					c0,0.1,0.1,0.2,0.2,0.3"/>
			</g>
			<g id="g802">
				<line id="line796" class="st6" x1="70" y1="11.7" x2="69.5" y2="11.3"/>
				<line id="line798" class="st6" x1="69.2" y1="11.3" x2="68.6" y2="11.7"/>
				<path id="path800" class="st6" d="M69.5,11.3c0.1,0,0.2-0.1,0.2-0.3c0-0.1-0.1-0.3-0.3-0.3c-0.1,0-0.3,0.1-0.3,0.3
					c0,0.1,0.1,0.2,0.1,0.3"/>
			</g>
			<g id="g810">
				<line id="line804" class="st6" x1="73.2" y1="11.7" x2="72.6" y2="11.3"/>
				<line id="line806" class="st6" x1="72.4" y1="11.3" x2="71.8" y2="11.7"/>
				<path id="path808" class="st6" d="M72.6,11.3c0.1,0,0.2-0.1,0.2-0.3c0-0.1-0.1-0.3-0.3-0.3s-0.3,0.1-0.3,0.3
					c0,0.1,0.1,0.2,0.2,0.3"/>
			</g>
			<g id="g818">
				<line id="line812" class="st6" x1="78" y1="11.7" x2="77.4" y2="11.3"/>
				<line id="line814" class="st6" x1="77.2" y1="11.3" x2="76.6" y2="11.7"/>
				<path id="path816" class="st6" d="M77.4,11.3c0.1,0,0.2-0.1,0.2-0.3c0-0.1-0.1-0.3-0.3-0.3S77,10.9,77,11.1
					c0,0.1,0.1,0.2,0.1,0.3"/>
			</g>
			<g id="g826">
				<line id="line820" class="st6" x1="74.8" y1="11.7" x2="74.3" y2="11.3"/>
				<line id="line822" class="st6" x1="74" y1="11.3" x2="73.4" y2="11.7"/>
				<path id="path824" class="st6" d="M74.3,11.3c0.1,0,0.2-0.1,0.2-0.3c0-0.1-0.1-0.3-0.3-0.3c-0.2,0-0.3,0.1-0.3,0.3
					c0,0.1,0.1,0.2,0.1,0.3"/>
			</g>
			<g id="g834">
				<line id="line828" class="st6" x1="76.4" y1="11.7" x2="75.9" y2="11.3"/>
				<line id="line830" class="st6" x1="75.6" y1="11.3" x2="75" y2="11.7"/>
				<path id="path832" class="st6" d="M75.9,11.3c0.1,0,0.2-0.1,0.2-0.3c0-0.1-0.1-0.3-0.3-0.3c-0.1,0-0.3,0.1-0.3,0.3
					c0,0.1,0.1,0.2,0.1,0.3"/>
			</g>
			<g id="g842">
				<line id="line836" class="st6" x1="79.6" y1="11.7" x2="79" y2="11.3"/>
				<line id="line838" class="st6" x1="78.8" y1="11.3" x2="78.2" y2="11.7"/>
				<path id="path840" class="st6" d="M79,11.3c0.1,0,0.2-0.1,0.2-0.3c0-0.1-0.1-0.3-0.3-0.3c-0.1,0-0.3,0.1-0.3,0.3
					c0,0.1,0.1,0.2,0.1,0.3"/>
			</g>
			<g id="g850">
				<line id="line844" class="st6" x1="81.2" y1="11.7" x2="80.6" y2="11.3"/>
				<line id="line846" class="st6" x1="80.4" y1="11.3" x2="79.8" y2="11.7"/>
				<path id="path848" class="st6" d="M80.6,11.3c0.1,0,0.2-0.1,0.2-0.3c0-0.1-0.1-0.3-0.3-0.3c-0.2,0-0.3,0.1-0.3,0.3
					c0,0.1,0.1,0.2,0.1,0.3"/>
			</g>
			<g id="g858">
				<line id="line852" class="st6" x1="93.9" y1="11.7" x2="93.4" y2="11.3"/>
				<line id="line854" class="st6" x1="93.1" y1="11.3" x2="92.6" y2="11.7"/>
				<path id="path856" class="st6" d="M93.4,11.3c0.1,0,0.2-0.1,0.2-0.3c0-0.1-0.1-0.3-0.3-0.3c-0.1,0-0.3,0.1-0.3,0.3
					c0,0.1,0.1,0.2,0.1,0.3"/>
			</g>
			<g id="g866">
				<line id="line860" class="st6" x1="82.8" y1="11.7" x2="82.2" y2="11.3"/>
				<line id="line862" class="st6" x1="82" y1="11.3" x2="81.4" y2="11.7"/>
				<path id="path864" class="st6" d="M82.2,11.3c0.1,0,0.2-0.1,0.2-0.3c0-0.1-0.1-0.3-0.3-0.3c-0.1,0-0.3,0.1-0.3,0.3
					c0,0.1,0.1,0.2,0.2,0.3"/>
			</g>
			<g id="g874">
				<line id="line868" class="st6" x1="92.3" y1="11.7" x2="91.8" y2="11.3"/>
				<line id="line870" class="st6" x1="91.6" y1="11.3" x2="91" y2="11.7"/>
				<path id="path872" class="st6" d="M91.8,11.3c0.1,0,0.2-0.1,0.2-0.3c0-0.1-0.1-0.3-0.3-0.3c-0.1,0-0.3,0.1-0.3,0.3
					c0,0.1,0.1,0.2,0.2,0.3"/>
			</g>
			<g id="g882">
				<line id="line876" class="st6" x1="95.5" y1="11.7" x2="95" y2="11.3"/>
				<line id="line878" class="st6" x1="94.8" y1="11.3" x2="94.2" y2="11.7"/>
				<path id="path880" class="st6" d="M95,11.3c0.1,0,0.2-0.1,0.2-0.3c0-0.1-0.1-0.3-0.3-0.3c-0.1,0-0.3,0.1-0.3,0.3
					c0,0.1,0.1,0.2,0.2,0.3"/>
			</g>
			<g id="g890">
				<line id="line884" class="st6" x1="89.1" y1="11.7" x2="88.6" y2="11.3"/>
				<line id="line886" class="st6" x1="88.4" y1="11.3" x2="87.8" y2="11.7"/>
				<path id="path888" class="st6" d="M88.6,11.3c0.1,0,0.2-0.1,0.2-0.3c0-0.1-0.1-0.3-0.3-0.3c-0.1,0-0.3,0.1-0.3,0.3
					c0,0.1,0.1,0.2,0.1,0.3"/>
			</g>
			<g id="g898">
				<line id="line892" class="st6" x1="85.9" y1="11.7" x2="85.4" y2="11.3"/>
				<line id="line894" class="st6" x1="85.1" y1="11.3" x2="84.6" y2="11.7"/>
				<path id="path896" class="st6" d="M85.4,11.3c0.1,0,0.2-0.1,0.2-0.3c0-0.1-0.1-0.3-0.3-0.3c-0.1,0-0.3,0.1-0.3,0.3
					c0,0.1,0.1,0.2,0.2,0.3"/>
			</g>
			<g id="g906">
				<line id="line900" class="st6" x1="90.7" y1="11.7" x2="90.2" y2="11.3"/>
				<line id="line902" class="st6" x1="90" y1="11.3" x2="89.4" y2="11.7"/>
				<path id="path904" class="st6" d="M90.2,11.3c0.1,0,0.2-0.1,0.2-0.3c0-0.1-0.1-0.3-0.3-0.3c-0.1,0-0.3,0.1-0.3,0.3
					c0,0.1,0.1,0.2,0.1,0.3"/>
			</g>
			<g id="g914">
				<line id="line908" class="st6" x1="84.3" y1="11.7" x2="83.8" y2="11.3"/>
				<line id="line910" class="st6" x1="83.5" y1="11.3" x2="83" y2="11.7"/>
				<path id="path912" class="st6" d="M83.8,11.3c0.1,0,0.2-0.1,0.2-0.3c0-0.1-0.1-0.3-0.3-0.3s-0.3,0.1-0.3,0.3
					c0,0.1,0.1,0.2,0.1,0.3"/>
			</g>
			<g id="g922">
				<line id="line916" class="st6" x1="87.5" y1="11.7" x2="87" y2="11.3"/>
				<line id="line918" class="st6" x1="86.7" y1="11.3" x2="86.2" y2="11.7"/>
				<path id="path920" class="st6" d="M87,11.3c0.1,0,0.2-0.1,0.2-0.3c0-0.1-0.1-0.3-0.3-0.3s-0.3,0.1-0.3,0.3
					c0,0.1,0.1,0.2,0.2,0.3"/>
			</g>
			<g id="g930">
				<line id="line924" class="st6" x1="97.1" y1="11.7" x2="96.6" y2="11.3"/>
				<line id="line926" class="st6" x1="96.3" y1="11.3" x2="95.7" y2="11.7"/>
				<path id="path928" class="st6" d="M96.6,11.3c0.1,0,0.2-0.1,0.2-0.3c0-0.1-0.1-0.3-0.3-0.3c-0.2,0-0.3,0.1-0.3,0.3
					c0,0.1,0.1,0.2,0.1,0.3"/>
			</g>
			<g id="g938">
				<line id="line932" class="st6" x1="54.1" y1="11.7" x2="53.6" y2="11.3"/>
				<line id="line934" class="st6" x1="53.3" y1="11.3" x2="52.8" y2="11.7"/>
				<path id="path936" class="st6" d="M53.6,11.3c0.1,0,0.2-0.1,0.2-0.3c0-0.1-0.1-0.3-0.3-0.3c-0.2,0-0.3,0.1-0.3,0.3
					c0,0.1,0.1,0.2,0.2,0.3"/>
			</g>
			<g id="g946">
				<line id="line940" class="st6" x1="55.7" y1="11.7" x2="55.2" y2="11.3"/>
				<line id="line942" class="st6" x1="54.9" y1="11.3" x2="54.4" y2="11.7"/>
				<path id="path944" class="st6" d="M55.2,11.3c0.1,0,0.2-0.1,0.2-0.3c0-0.1-0.1-0.3-0.3-0.3c-0.2,0-0.3,0.1-0.3,0.3
					c0,0.1,0.1,0.2,0.1,0.3"/>
			</g>
			<g id="g954">
				<line id="line948" class="st6" x1="54.1" y1="11.7" x2="53.6" y2="11.3"/>
				<line id="line950" class="st6" x1="53.3" y1="11.3" x2="52.7" y2="11.7"/>
				<path id="path952" class="st6" d="M53.6,11.3c0.1,0,0.2-0.1,0.2-0.3c0-0.1-0.1-0.3-0.3-0.3c-0.2,0-0.3,0.1-0.3,0.3
					c0,0.1,0.1,0.2,0.2,0.3"/>
			</g>
			<g id="g962">
				<line id="line956" class="st6" x1="52.5" y1="11.7" x2="52" y2="11.3"/>
				<line id="line958" class="st6" x1="51.7" y1="11.3" x2="51.1" y2="11.7"/>
				<path id="path960" class="st6" d="M52,11.3c0.1,0,0.2-0.1,0.2-0.3c0-0.1-0.1-0.3-0.3-0.3c-0.2,0-0.3,0.1-0.3,0.3
					c0,0.1,0.1,0.2,0.2,0.3"/>
			</g>
			<g id="g970">
				<line id="line964" class="st6" x1="54.1" y1="11.7" x2="53.6" y2="11.3"/>
				<line id="line966" class="st6" x1="53.3" y1="11.3" x2="52.7" y2="11.7"/>
				<path id="path968" class="st6" d="M53.6,11.3c0.1,0,0.2-0.1,0.2-0.3c0-0.1-0.1-0.3-0.3-0.3c-0.2,0-0.3,0.1-0.3,0.3
					c0,0.1,0.1,0.2,0.1,0.3"/>
			</g>
			<g id="g978">
				<line id="line972" class="st6" x1="100.3" y1="11.7" x2="99.7" y2="11.3"/>
				<line id="line974" class="st6" x1="99.5" y1="11.3" x2="98.9" y2="11.7"/>
				<path id="path976" class="st6" d="M99.7,11.3c0.1,0,0.2-0.1,0.2-0.3c0-0.1-0.1-0.3-0.3-0.3c-0.1,0-0.3,0.1-0.3,0.3
					c0,0.1,0.1,0.2,0.1,0.3"/>
			</g>
			<g id="g986">
				<line id="line980" class="st6" x1="98.7" y1="11.7" x2="98.2" y2="11.3"/>
				<line id="line982" class="st6" x1="97.9" y1="11.3" x2="97.3" y2="11.7"/>
				<path id="path984" class="st6" d="M98.2,11.3c0.1,0,0.2-0.1,0.2-0.3c0-0.1-0.1-0.3-0.3-0.3c-0.1,0-0.3,0.1-0.3,0.3
					c0,0.1,0.1,0.2,0.2,0.3"/>
			</g>
		</g>
		<line id="line990" class="st6" x1="97.1" y1="11.7" x2="97.3" y2="11.7"/>
		<line id="line992" class="st6" x1="98.7" y1="11.7" x2="98.9" y2="11.7"/>
		<path id="path994" class="st4" d="M30,47.7c-0.2-0.1-0.4-0.2-0.4-0.4c0,0,0,0,0-0.1c0,0-0.1,0-0.1,0c-0.3,0-0.5-0.2-0.5-0.4
			c0,0,0-0.1,0-0.1c-0.2-0.1-0.4-0.3-0.4-0.5c0-0.1,0.1-0.2,0.1-0.3c-0.1-0.1-0.1-0.2-0.1-0.3c0-0.2,0.2-0.5,0.6-0.6
			c0,0,0-0.1,0-0.1c0-0.2,0.3-0.4,0.5-0.4c0,0,0-0.1,0-0.1c0-0.1,0-0.2,0.1-0.2c0-0.1-0.1-0.1-0.1-0.2c0-0.1,0.1-0.2,0.1-0.3
			c-0.1-0.1-0.1-0.2-0.1-0.3c0-0.2,0.2-0.4,0.5-0.5c0,0,0-0.1,0-0.1c0-0.2,0.2-0.4,0.5-0.4c0,0,0-0.1,0-0.1c0-0.2,0.3-0.4,0.6-0.4
			c0.1,0,0.2,0,0.3,0.1c0.1-0.1,0.2-0.2,0.4-0.2c0.1,0,0.2,0,0.2,0.1c0.1-0.1,0.2-0.1,0.4-0.2c0-0.1,0-0.1,0.1-0.2
			c-0.1-0.1-0.1-0.1-0.1-0.2c0-0.1,0.1-0.3,0.3-0.3c0,0,0-0.1,0-0.1c0-0.1,0.1-0.2,0.3-0.2c0,0,0,0,0-0.1c0-0.1,0.2-0.3,0.4-0.3
			c0.1,0,0.1,0,0.2,0.1c0.1-0.1,0.2-0.1,0.3-0.1c0.1,0,0.1,0,0.1,0c0.1-0.1,0.2-0.1,0.4-0.1c0.2,0,0.4,0.1,0.4,0.3c0,0,0.1,0,0.1,0
			c0.1,0,0.3,0.1,0.3,0.2c0,0,0.1,0,0.1,0c0.2,0,0.5,0.2,0.5,0.4c0,0.1,0,0.1-0.1,0.2c0.1,0,0.1,0.1,0.1,0.1c0,0.1-0.1,0.1-0.2,0.2
			c0.1,0.1,0.1,0.1,0.1,0.2c0,0,0,0,0.1,0c0.1-0.1,0.3-0.2,0.5-0.2c0.3,0,0.5,0.1,0.6,0.4"/>
		<path id="path996" class="st4" d="M41.5,48.2c0,0.1-0.1,0.2-0.2,0.4c0.1,0.1,0.2,0.2,0.2,0.3c0,0.1-0.1,0.3-0.4,0.4
			c0.1,0.1,0.3,0.3,0.3,0.4c0,0.2-0.3,0.4-0.6,0.6c0,0,0,0.1,0,0.1c0,0.2-0.3,0.4-0.6,0.4v0c0,0,0,0,0,0c-0.1,0-0.2,0.1-0.3,0.1
			c-0.2,0-0.4-0.1-0.5-0.1c-0.1,0.1-0.4,0.1-0.6,0.1c-0.2,0-0.4,0-0.5-0.1c0,0.2-0.3,0.4-0.7,0.4c-0.1,0-0.3,0-0.4-0.1
			c-0.1,0.1-0.2,0.1-0.4,0.1c-0.1,0-0.2,0-0.3-0.1c-0.1,0.1-0.2,0.1-0.3,0.1c-0.3,0-0.5-0.1-0.5-0.3l0,0h0c-0.2,0-0.3-0.1-0.4-0.1
			c-0.1,0-0.2,0-0.3,0c-0.2,0-0.5-0.1-0.7-0.1c-0.1,0.1-0.4,0.3-0.6,0.3c-0.2,0-0.4-0.1-0.5-0.1c-0.1,0.1-0.4,0.1-0.6,0.1
			c-0.4,0-0.9-0.2-0.9-0.5l0,0c0,0,0,0-0.1,0c-0.4,0-0.7-0.2-0.7-0.4c0,0,0,0,0-0.1c-0.1,0-0.1,0-0.1,0c-0.4,0-0.7-0.2-0.7-0.4
			c0-0.1,0-0.1,0.1-0.1c-0.3-0.1-0.6-0.3-0.6-0.6c0-0.1,0.1-0.2,0.2-0.4c-0.1-0.1-0.2-0.2-0.2-0.4c0-0.3,0.3-0.5,0.7-0.6
			c0-0.1-0.1-0.1-0.1-0.1c0-0.2,0.4-0.4,0.7-0.4c0,0,0-0.1,0-0.1c0-0.1,0.1-0.2,0.1-0.3c-0.1-0.1-0.1-0.1-0.1-0.2
			c0-0.1,0.1-0.2,0.2-0.3c-0.1-0.1-0.2-0.2-0.2-0.3c0-0.2,0.3-0.5,0.7-0.6c0,0-0.1-0.1-0.1-0.1c0-0.2,0.2-0.3,0.5-0.4
			c0.1,0,0.2,0,0.2,0.1c0.1-0.1,0.3-0.1,0.5-0.2c0-0.1,0.1-0.1,0.1-0.2c-0.1-0.1-0.1-0.1-0.1-0.2c0-0.2,0.2-0.3,0.4-0.4
			c0,0,0-0.1,0-0.1c0-0.1,0.2-0.3,0.4-0.3c0,0,0,0,0-0.1c0-0.2,0.3-0.3,0.5-0.3c0.1,0,0.2,0,0.3,0.1c0.1-0.1,0.2-0.1,0.4-0.1
			c0.1,0,0.1,0,0.2,0c0.1-0.1,0.3-0.1,0.5-0.1c0.3,0,0.5,0.1,0.6,0.3c0.1,0,0.1,0,0.2,0c0.2,0,0.4,0.1,0.4,0.3c0,0,0.1,0,0.1,0
			c0.3,0,0.6,0.2,0.6,0.4c0,0.1,0,0.1-0.1,0.2c0.1,0.1,0.1,0.1,0.1,0.2c0,0.1-0.1,0.2-0.2,0.2c0.1,0.1,0.1,0.1,0.1,0.2
			c0,0,0,0,0.1,0c0.2-0.1,0.4-0.2,0.7-0.2c0.4,0,0.7,0.2,0.8,0.4c0.1,0,0.1,0,0.2,0c0.3,0,0.5,0.1,0.5,0.3c0,0,0.1,0,0.1,0
			c0.4,0,0.8,0.2,0.8,0.5c0,0.1-0.1,0.2-0.1,0.3c0.1,0.1,0.1,0.1,0.1,0.2c0,0.1-0.1,0.2-0.3,0.3c0.1,0.1,0.2,0.2,0.2,0.3
			c0,0.2-0.2,0.4-0.5,0.4c0,0,0,0.1,0,0.1c0,0,0,0.1,0,0.1c0,0.1,0.1,0.1,0.1,0.2c0.1,0,0.1,0,0.1,0C41,47.6,41.5,47.9,41.5,48.2"/>
		<path id="path998" class="st4" d="M121.7,47.8c0.1-0.1,0.3-0.2,0.3-0.3c0,0,0,0,0-0.1c0,0,0.1,0,0.1,0c0.3,0,0.5-0.2,0.5-0.4
			c0,0,0-0.1,0-0.1c0.2-0.1,0.4-0.3,0.4-0.5c0-0.1-0.1-0.2-0.1-0.3c0.1-0.1,0.1-0.2,0.1-0.3c0-0.2-0.2-0.4-0.5-0.5c0,0,0-0.1,0-0.1
			c0-0.2-0.3-0.4-0.5-0.4c0,0,0-0.1,0-0.1c0-0.1,0-0.2-0.1-0.2c0-0.1,0.1-0.1,0.1-0.2c0-0.1-0.1-0.2-0.1-0.3
			c0.1-0.1,0.1-0.2,0.1-0.3c0-0.2-0.2-0.4-0.5-0.5c0,0,0-0.1,0-0.1c0-0.2-0.2-0.4-0.5-0.4c0,0,0-0.1,0-0.1c0-0.2-0.3-0.4-0.6-0.4
			c-0.1,0-0.2,0-0.3,0.1c-0.1-0.1-0.2-0.1-0.4-0.1c-0.1,0-0.2,0-0.2,0.1c-0.1-0.1-0.2-0.1-0.4-0.2c0-0.1,0-0.1-0.1-0.2
			c0.1-0.1,0.1-0.1,0.1-0.2c0-0.1-0.1-0.3-0.3-0.3c0,0,0-0.1,0-0.1c0-0.1-0.1-0.2-0.3-0.2c0,0,0,0,0-0.1c0-0.1-0.2-0.3-0.4-0.3
			c-0.1,0-0.1,0-0.2,0.1c-0.1-0.1-0.1-0.1-0.3-0.1c-0.1,0-0.1,0-0.1,0c-0.1-0.1-0.2-0.1-0.4-0.1c-0.2,0-0.4,0.1-0.4,0.3
			c0,0-0.1,0-0.1,0c-0.1,0-0.3,0.1-0.3,0.2c0,0-0.1,0-0.1,0c-0.2,0-0.4,0.2-0.4,0.4c0,0.1,0,0.1,0.1,0.2c-0.1,0-0.1,0.1-0.1,0.1
			c0,0.1,0.1,0.1,0.2,0.2c-0.1,0.1-0.1,0.1-0.1,0.2c0,0,0,0-0.1,0c-0.1-0.1-0.3-0.1-0.5-0.1c-0.3,0-0.5,0.1-0.6,0.4"/>
		<path id="path1000" class="st4" d="M110.6,49.7c0,0.2,0.2,0.4,0.6,0.5c0,0,0,0.1,0,0.1c0,0.2,0.3,0.4,0.6,0.4v0c0,0,0,0,0,0
			c0.1,0,0.2,0.1,0.3,0.1c0.2,0,0.3,0,0.5-0.1c0.1,0.1,0.4,0.1,0.5,0.1c0.2,0,0.3,0,0.5-0.1c0,0.2,0.3,0.4,0.6,0.4
			c0.1,0,0.3,0,0.4-0.1c0.1,0.1,0.2,0.1,0.4,0.1c0.1,0,0.2,0,0.3-0.1c0.1,0.1,0.2,0.1,0.3,0.1c0.3,0,0.5-0.1,0.5-0.3l0,0h0
			c0.1,0,0.3-0.1,0.4-0.1c0.1,0,0.2,0,0.2,0c0.2,0,0.5-0.1,0.7-0.1c0.1,0.1,0.4,0.2,0.6,0.2c0.2,0,0.3,0,0.5-0.1
			c0.1,0.1,0.4,0.1,0.6,0.1c0.4,0,0.8-0.2,0.8-0.5l0,0c0,0,0,0,0.1,0c0.4,0,0.7-0.2,0.7-0.4c0,0,0,0,0-0.1c0.1,0,0.1,0,0.1,0
			c0.4,0,0.7-0.2,0.7-0.4c0-0.1,0-0.1-0.1-0.1c0.3-0.1,0.6-0.3,0.6-0.6c0-0.1-0.1-0.2-0.2-0.3c0.1-0.1,0.2-0.2,0.2-0.3
			c0-0.3-0.3-0.5-0.7-0.6c0-0.1,0.1-0.1,0.1-0.1c0-0.2-0.4-0.4-0.7-0.4c0,0,0-0.1,0-0.1c0-0.1-0.1-0.2-0.1-0.3
			c0-0.1,0.1-0.1,0.1-0.2c0-0.1-0.1-0.2-0.2-0.3c0.1-0.1,0.2-0.2,0.2-0.3c0-0.2-0.3-0.5-0.7-0.6c0,0,0.1-0.1,0.1-0.1
			c0-0.2-0.2-0.3-0.5-0.4c-0.1,0-0.2,0-0.2,0.1c-0.1-0.1-0.3-0.1-0.5-0.2c0-0.1-0.1-0.1-0.1-0.2c0.1-0.1,0.1-0.1,0.1-0.2
			c0-0.1-0.2-0.3-0.4-0.4c0,0,0-0.1,0-0.1c0-0.1-0.2-0.2-0.4-0.2c0,0,0,0,0-0.1c0-0.1-0.3-0.3-0.5-0.3c-0.1,0-0.2,0-0.3,0.1
			c-0.1-0.1-0.2-0.1-0.4-0.1c-0.1,0-0.1,0-0.2,0c-0.1-0.1-0.3-0.1-0.5-0.1c-0.3,0-0.5,0.1-0.6,0.3c-0.1,0-0.1,0-0.2,0
			c-0.2,0-0.4,0.1-0.4,0.3c0,0-0.1,0-0.1,0c-0.3,0-0.6,0.2-0.6,0.4c0,0.1,0,0.1,0.1,0.2c-0.1,0.1-0.1,0.1-0.1,0.2
			c0,0.1,0.1,0.2,0.2,0.2c-0.1,0.1-0.1,0.1-0.1,0.2c0,0,0,0-0.1,0c-0.1-0.1-0.4-0.2-0.6-0.2c-0.4,0-0.7,0.2-0.8,0.4
			c-0.1,0-0.1,0-0.2,0c-0.3,0-0.5,0.1-0.5,0.3c0,0-0.1,0-0.1,0c-0.4,0-0.8,0.2-0.8,0.5c0,0.1,0.1,0.2,0.1,0.3
			c-0.1,0.1-0.1,0.1-0.1,0.2c0,0.1,0.1,0.2,0.3,0.3c-0.1,0.1-0.2,0.2-0.2,0.3c0,0.2,0.2,0.4,0.4,0.4c0,0,0,0.1,0,0.1
			c0,0,0,0.1,0,0.1c0,0.1-0.1,0.1-0.1,0.1c-0.1,0-0.1,0-0.1,0c-0.5,0-1,0.3-1,0.7c0,0.1,0.1,0.2,0.2,0.3c-0.1,0.1-0.2,0.2-0.2,0.3
			c0,0.1,0.1,0.3,0.4,0.4C110.7,49.4,110.6,49.5,110.6,49.7"/>
	</g>
</g>
</svg>
